<svg width="60" height="60" viewBox="0 0 60 60" fill="none" xmlns="http://www.w3.org/2000/svg">
<rect x="0.5" y="0.5" width="59" height="59" rx="29.5" fill="#F4FBED"/>
<rect x="0.5" y="0.5" width="59" height="59" rx="29.5" stroke="#DEF3C7"/>
<path d="M40.8311 26.8383V26.6086C40.8393 24.3098 40.1099 22.0689 38.7502 20.2154C37.3904 18.3619 35.472 16.9933 33.2768 16.3109H33.1957C32.0619 15.9653 30.8807 15.8011 29.6956 15.8244C26.8737 15.9793 24.2172 17.2052 22.2684 19.252C20.3195 21.2988 19.2252 24.0121 19.2088 26.8383C18.4169 27.1169 17.731 27.6344 17.2458 28.3194C16.7606 29.0045 16.5 29.8233 16.5 30.6627C16.5 31.5022 16.7606 32.321 17.2458 33.006C17.731 33.6911 18.4169 34.2086 19.2088 34.4872C19.4872 37.1559 20.7479 39.6257 22.746 41.4165C24.7442 43.2073 27.3368 44.1911 30.0199 44.1766H30.3308C32.9254 44.0511 35.3916 43.0102 37.2916 41.2388C39.1916 39.4674 40.4026 37.0801 40.7094 34.5007C41.5107 34.2379 42.21 33.7318 42.7101 33.0528C43.2102 32.3739 43.4861 31.5559 43.4995 30.7128C43.5129 29.8697 43.263 29.0434 42.7847 28.3489C42.3065 27.6545 41.6235 27.1264 40.8311 26.8383ZM30.2632 41.4739C28.3069 41.5305 26.3962 40.8776 24.8836 39.6357C23.371 38.3938 22.3586 36.6468 22.0332 34.7169H37.9391C37.6093 36.5438 36.6715 38.2056 35.278 39.4323C33.8845 40.6589 32.1172 41.3784 30.2632 41.4739ZM39.4797 32.0141H20.5602C20.2018 32.0141 19.8581 31.8717 19.6046 31.6183C19.3512 31.3649 19.2088 31.0211 19.2088 30.6627C19.2088 30.3043 19.3512 29.9606 19.6046 29.7071C19.8581 29.4537 20.2018 29.3113 20.5602 29.3113H23.263C23.6214 29.3113 23.9651 29.169 24.2186 28.9155C24.472 28.6621 24.6144 28.3184 24.6144 27.9599C24.6144 27.6015 24.472 27.2578 24.2186 27.0044C23.9651 26.7509 23.6214 26.6086 23.263 26.6086H21.9116C21.9721 25.2066 22.3728 23.8405 23.0791 22.628C23.7854 21.4155 24.7761 20.393 25.9658 19.6489V23.9058C25.9658 24.2642 26.1081 24.6079 26.3616 24.8613C26.615 25.1148 26.9587 25.2572 27.3172 25.2572C27.6756 25.2572 28.0193 25.1148 28.2727 24.8613C28.5262 24.6079 28.6686 24.2642 28.6686 23.9058V18.6218C29.0354 18.5605 29.4053 18.5199 29.7767 18.5002H30.0199C30.4728 18.5066 30.9246 18.5472 31.3713 18.6218V23.9058C31.3713 24.2642 31.5137 24.6079 31.7671 24.8613C32.0206 25.1148 32.3643 25.2572 32.7227 25.2572C33.0811 25.2572 33.4249 25.1148 33.6783 24.8613C33.9317 24.6079 34.0741 24.2642 34.0741 23.9058V19.6083C34.6474 19.9403 35.1822 20.3346 35.6688 20.7841C36.4479 21.5407 37.0671 22.4462 37.4896 23.4467C37.9121 24.4472 38.1293 25.5225 38.1283 26.6086H36.7769C36.4185 26.6086 36.0748 26.7509 35.8213 27.0044C35.5679 27.2578 35.4255 27.6015 35.4255 27.9599C35.4255 28.3184 35.5679 28.6621 35.8213 28.9155C36.0748 29.169 36.4185 29.3113 36.7769 29.3113H39.4797C39.8381 29.3113 40.1818 29.4537 40.4353 29.7071C40.6887 29.9606 40.8311 30.3043 40.8311 30.6627C40.8311 31.0211 40.6887 31.3649 40.4353 31.6183C40.1818 31.8717 39.8381 32.0141 39.4797 32.0141Z" fill="#81BA0F"/>
</svg>
