<svg width="60" height="60" viewBox="0 0 60 60" fill="none" xmlns="http://www.w3.org/2000/svg">
<rect x="0.5" y="0.5" width="59" height="59" rx="29.5" fill="#F4FBED"/>
<rect x="0.5" y="0.5" width="59" height="59" rx="29.5" stroke="#DEF3C7"/>
<path d="M40.1979 24.9172L32.5495 18.2121C31.8484 17.585 30.9407 17.2383 30 17.2383C29.0594 17.2383 28.1517 17.585 27.4506 18.2121L19.8022 24.9172C19.3973 25.2793 19.0742 25.7235 18.8544 26.2203C18.6346 26.717 18.5231 27.2549 18.5275 27.7981V38.9392C18.5275 39.9534 18.9304 40.9261 19.6475 41.6433C20.3647 42.3605 21.3374 42.7634 22.3517 42.7634H37.6484C38.6627 42.7634 39.6354 42.3605 40.3525 41.6433C41.0697 40.9261 41.4726 39.9534 41.4726 38.9392V27.7853C41.4751 27.2443 41.3628 26.7089 41.1431 26.2144C40.9233 25.72 40.6012 25.2779 40.1979 24.9172ZM32.5495 40.2139H27.4506V33.8403C27.4506 33.5022 27.5849 33.178 27.8239 32.9389C28.063 32.6999 28.3872 32.5656 28.7253 32.5656H31.2748C31.6128 32.5656 31.9371 32.6999 32.1761 32.9389C32.4152 33.178 32.5495 33.5022 32.5495 33.8403V40.2139ZM38.9232 38.9392C38.9232 39.2773 38.7889 39.6015 38.5498 39.8406C38.3107 40.0796 37.9865 40.2139 37.6484 40.2139H35.099V33.8403C35.099 32.826 34.6961 31.8533 33.9789 31.1362C33.2617 30.419 32.289 30.0161 31.2748 30.0161H28.7253C27.7111 30.0161 26.7384 30.419 26.0212 31.1362C25.304 31.8533 24.9011 32.826 24.9011 33.8403V40.2139H22.3517C22.0136 40.2139 21.6893 40.0796 21.4503 39.8406C21.2112 39.6015 21.0769 39.2773 21.0769 38.9392V27.7853C21.0772 27.6043 21.1159 27.4255 21.1907 27.2606C21.2654 27.0958 21.3744 26.9487 21.5103 26.8293L29.1587 20.1369C29.3913 19.9326 29.6904 19.8199 30 19.8199C30.3097 19.8199 30.6087 19.9326 30.8414 20.1369L38.4897 26.8293C38.6257 26.9487 38.7347 27.0958 38.8094 27.2606C38.8842 27.4255 38.9229 27.6043 38.9232 27.7853V38.9392Z" fill="#81BA0F"/>
</svg>
