<svg width="60" height="60" viewBox="0 0 60 60" fill="none" xmlns="http://www.w3.org/2000/svg">
<rect x="0.5" y="0.5" width="59" height="59" rx="29.5" fill="#F4FBED"/>
<rect x="0.5" y="0.5" width="59" height="59" rx="29.5" stroke="#DEF3C7"/>
<path d="M39.3346 28.8573C38.892 28.7938 38.4473 28.7462 38.0013 28.7146M22.0013 31.288C21.5462 31.256 21.1017 31.2084 20.668 31.1453M33.3346 30.0013C33.3346 30.8854 32.9834 31.7332 32.3583 32.3583C31.7332 32.9834 30.8854 33.3346 30.0013 33.3346C29.1172 33.3346 28.2694 32.9834 27.6443 32.3583C27.0192 31.7332 26.668 30.8854 26.668 30.0013C26.668 29.1172 27.0192 28.2694 27.6443 27.6443C28.2694 27.0192 29.1172 26.668 30.0013 26.668C30.8854 26.668 31.7332 27.0192 32.3583 27.6443C32.9834 28.2694 33.3346 29.1172 33.3346 30.0013Z" stroke="#81BA0F" stroke-width="1.5" stroke-linecap="round" stroke-linejoin="round"/>
<path d="M30.0013 40.0013C28.2253 40.8306 25.8906 41.3346 23.3346 41.3346C21.9133 41.3346 20.5613 41.1786 19.3346 40.8986C17.3346 40.44 16.668 39.236 16.668 37.1826V22.82C16.668 21.5066 18.0546 20.6053 19.3346 20.8986C20.5613 21.1786 21.9133 21.3346 23.3346 21.3346C25.8906 21.3346 28.2253 20.8306 30.0013 20.0013C31.7773 19.172 34.112 18.668 36.668 18.668C38.0893 18.668 39.4413 18.824 40.668 19.104C42.7773 19.588 43.3346 20.828 43.3346 22.82V37.1826C43.3346 38.496 41.948 39.3973 40.668 39.104C39.4413 38.824 38.0893 38.668 36.668 38.668C34.112 38.668 31.7773 39.172 30.0013 40.0013Z" stroke="#81BA0F" stroke-width="1.5" stroke-linecap="round" stroke-linejoin="round"/>
</svg>
