<svg width="60" height="60" viewBox="0 0 60 60" fill="none" xmlns="http://www.w3.org/2000/svg">
<rect x="0.5" y="0.5" width="59" height="59" rx="29.5" fill="#F4FBED"/>
<rect x="0.5" y="0.5" width="59" height="59" rx="29.5" stroke="#DEF3C7"/>
<path d="M21 24.375C21 23.9318 21.0873 23.4929 21.2569 23.0834C21.4265 22.674 21.6751 22.3019 21.9885 21.9885C22.3019 21.6751 22.674 21.4265 23.0834 21.2569C23.4929 21.0873 23.9318 21 24.375 21C24.8182 21 25.2571 21.0873 25.6666 21.2569C26.076 21.4265 26.4481 21.6751 26.7615 21.9885C27.0749 22.3019 27.3235 22.674 27.4931 23.0834C27.6627 23.4929 27.75 23.9318 27.75 24.375C27.75 25.2701 27.3944 26.1286 26.7615 26.7615C26.1286 27.3944 25.2701 27.75 24.375 27.75C23.4799 27.75 22.6214 27.3944 21.9885 26.7615C21.3556 26.1286 21 25.2701 21 24.375ZM24.375 18.75C22.8832 18.75 21.4524 19.3426 20.3975 20.3975C19.3426 21.4524 18.75 22.8832 18.75 24.375C18.75 25.8668 19.3426 27.2976 20.3975 28.3525C21.4524 29.4074 22.8832 30 24.375 30C25.8668 30 27.2976 29.4074 28.3525 28.3525C29.4074 27.2976 30 25.8668 30 24.375C30 22.8832 29.4074 21.4524 28.3525 20.3975C27.2976 19.3426 25.8668 18.75 24.375 18.75ZM35.625 25.5C35.625 24.9033 35.8621 24.331 36.284 23.909C36.706 23.4871 37.2783 23.25 37.875 23.25C38.4717 23.25 39.044 23.4871 39.466 23.909C39.8879 24.331 40.125 24.9033 40.125 25.5C40.125 26.0967 39.8879 26.669 39.466 27.091C39.044 27.5129 38.4717 27.75 37.875 27.75C37.2783 27.75 36.706 27.5129 36.284 27.091C35.8621 26.669 35.625 26.0967 35.625 25.5ZM37.875 21C36.6815 21 35.5369 21.4741 34.693 22.318C33.8491 23.1619 33.375 24.3065 33.375 25.5C33.375 26.6935 33.8491 27.8381 34.693 28.682C35.5369 29.5259 36.6815 30 37.875 30C39.0685 30 40.2131 29.5259 41.057 28.682C41.9009 27.8381 42.375 26.6935 42.375 25.5C42.375 24.3065 41.9009 23.1619 41.057 22.318C40.2131 21.4741 39.0685 21 37.875 21ZM15.375 35.625C15.375 34.7299 15.7306 33.8714 16.3635 33.2385C16.9964 32.6056 17.8549 32.25 18.75 32.25H30C30.8951 32.25 31.7536 32.6056 32.3865 33.2385C33.0194 33.8714 33.375 34.7299 33.375 35.625V35.877C33.3746 35.9801 33.3671 36.0831 33.3525 36.1852C33.2246 37.2761 32.8186 38.3158 32.1735 39.2048C30.9427 40.9035 28.6027 42.375 24.375 42.375C20.1473 42.375 17.8095 40.9035 16.5742 39.2048C15.9299 38.3156 15.5248 37.2759 15.3975 36.1852C15.3865 36.0828 15.379 35.98 15.375 35.877V35.625ZM17.625 35.8275V35.8433L17.634 35.9535C17.7208 36.6501 17.9825 37.3134 18.3945 37.8818C19.128 38.8898 20.7255 40.125 24.375 40.125C28.0245 40.125 29.622 38.8898 30.3555 37.8818C30.7675 37.3134 31.0292 36.6501 31.116 35.9535L31.125 35.841V35.625C31.125 35.3266 31.0065 35.0405 30.7955 34.8295C30.5845 34.6185 30.2984 34.5 30 34.5H18.75C18.4516 34.5 18.1655 34.6185 17.9545 34.8295C17.7435 35.0405 17.625 35.3266 17.625 35.625V35.8275ZM37.875 40.125C36.552 40.125 35.4675 39.9225 34.59 39.5895C34.9474 38.9272 35.2202 38.2227 35.4023 37.4925C36.0053 37.7197 36.8062 37.875 37.875 37.875C40.3927 37.875 41.4255 37.0155 41.88 36.3765C42.1477 36.0049 42.3165 35.5713 42.3705 35.1165L42.375 35.0535C42.3726 34.9059 42.3123 34.7651 42.2071 34.6616C42.1019 34.558 41.9601 34.5 41.8125 34.5H35.5125C35.3457 33.6843 34.9999 32.9158 34.5 32.25H41.8125C43.365 32.25 44.625 33.51 44.625 35.0625V35.1007C44.6235 35.1828 44.6175 35.2646 44.607 35.346C44.5141 36.1899 44.2057 36.9957 43.7115 37.686C42.762 39.0158 40.9823 40.125 37.875 40.125Z" fill="#81BA0F"/>
</svg>
