<svg width="46" height="47" viewBox="0 0 46 47" fill="none" xmlns="http://www.w3.org/2000/svg">
<rect x="0.5" y="0.875" width="45" height="45" rx="22.5" fill="white"/>
<rect x="0.5" y="0.875" width="45" height="45" rx="22.5" stroke="#EAF1FF"/>
<path d="M35.125 16.459C35.3103 16.2171 35.4027 15.9169 35.3856 15.6127C35.3685 15.3085 35.243 15.0205 35.0318 14.8009C34.8548 14.6153 33.9022 13.6696 33.7782 13.5465C33.5884 13.3578 33.3439 13.2338 33.0796 13.1919C32.8153 13.15 32.5445 13.1924 32.3057 13.313L30.5099 11.5173C30.2257 11.2353 29.8415 11.0771 29.4411 11.0771C29.0406 11.0771 28.6564 11.2353 28.3722 11.5173L24.9611 14.9292C24.6781 15.2129 24.5192 15.5973 24.5192 15.9981C24.5192 16.3988 24.6781 16.7832 24.9611 17.067L26.691 18.7968C23.9213 21.5332 24.0316 21.5272 23.7896 21.6187L21.2679 19.097L23.2971 17.0678C23.5771 16.783 23.7348 16.4001 23.7364 16.0007C23.738 15.6012 23.5834 15.217 23.3056 14.93L19.8937 11.5181C19.61 11.2351 19.2256 11.0762 18.8248 11.0762C18.4241 11.0762 18.0397 11.2351 17.7559 11.5181L15.6643 13.6089C15.4271 13.489 15.1585 13.4457 14.8956 13.4851C14.6328 13.5244 14.3886 13.6445 14.197 13.8286C14.0465 13.9714 13.3641 14.6649 12.9417 15.0916C12.7529 15.2815 12.6287 15.5261 12.5868 15.7906C12.5449 16.0551 12.5874 16.326 12.7082 16.565L10.6234 18.6506C10.3417 18.935 10.1836 19.3192 10.1836 19.7195C10.1836 20.1199 10.3417 20.504 10.6234 20.7884L14.0277 24.2012C14.312 24.4829 14.6962 24.641 15.0965 24.641C15.4969 24.641 15.881 24.4829 16.1654 24.2012L18.1903 22.1763L20.1289 24.1148L13.3316 30.9181C13.0479 31.2023 12.8886 31.5875 12.8886 31.9891C12.8886 32.3907 13.0479 32.7759 13.3316 33.0601L15.5036 35.233C15.7876 35.5154 16.1719 35.6739 16.5725 35.6739C16.973 35.6739 17.3573 35.5154 17.6414 35.233L23.8178 29.0573L29.9858 35.2244C30.2695 35.5074 30.6539 35.6664 31.0546 35.6664C31.4554 35.6664 31.8398 35.5074 32.1235 35.2244L34.2964 33.0516C34.5784 32.7673 34.7366 32.3831 34.7366 31.9827C34.7366 31.5823 34.5784 31.1981 34.2964 30.9138L27.5085 24.1259L29.7574 21.8761L31.6071 23.7257C31.8097 23.9292 32.0506 24.0906 32.316 24.2004C32.5814 24.3102 32.8659 24.3662 33.1531 24.3653H33.1625C33.4493 24.3646 33.733 24.3068 33.9973 24.1954C34.2615 24.084 34.501 23.9211 34.7017 23.7163C35.0181 23.3982 35.2293 22.9912 35.308 22.5499L35.7355 20.112C35.9535 18.8603 35.7382 17.5717 35.125 16.459ZM15.0923 22.8569L11.9651 19.7229L18.8206 12.8675L21.9503 15.9981L15.0923 22.8569ZM16.5716 33.8879L14.6767 31.9929L21.0832 25.5796C21.1418 26.112 21.3772 26.6094 21.7519 26.9922L22.607 27.8474L16.5716 33.8879ZM31.0572 33.8793L22.961 25.7831C22.8376 25.6565 22.7681 25.487 22.7669 25.3102C22.7667 24.6931 22.523 24.101 22.0888 23.6624L19.3969 20.9705L20.0562 20.3113L22.743 22.9989C23.1799 23.4329 23.7673 23.6819 24.3831 23.6941C24.5598 23.6952 24.7293 23.7648 24.8559 23.8882L32.9521 31.9844L31.0572 33.8793ZM26.3028 22.9159C26.0942 22.6846 25.8535 22.4844 25.5879 22.3216L27.8967 20.0128L28.5509 20.6678L26.3028 22.9159ZM34.0587 19.8179L33.6311 22.2438C33.6131 22.3455 33.5648 22.4394 33.4926 22.5132C33.4489 22.5582 33.3967 22.594 33.339 22.6185C33.2813 22.643 33.2192 22.6558 33.1565 22.656C33.0298 22.6558 32.9083 22.6053 32.8187 22.5157L26.3054 16.0015L29.4402 12.8666L32.9787 16.4051C33.4192 16.8455 33.7473 17.3853 33.9353 17.9792C34.1232 18.573 34.1656 19.2042 34.0587 19.8179Z" fill="#81BA0F"/>
</svg>
