<svg width="46" height="47" viewBox="0 0 46 47" fill="none" xmlns="http://www.w3.org/2000/svg">
<rect x="0.5" y="0.875" width="45" height="45" rx="22.5" fill="white"/>
<rect x="0.5" y="0.875" width="45" height="45" rx="22.5" stroke="#EAF1FF"/>
<path d="M31.6685 20.8439V20.6601C31.6751 18.8202 31.0913 17.0268 30.0031 15.5434C28.9148 14.0599 27.3794 12.9646 25.6225 12.4185H25.5576C24.6502 12.1418 23.7048 12.0104 22.7563 12.0291C20.4978 12.153 18.3717 13.1342 16.812 14.7723C15.2522 16.4105 14.3764 18.5821 14.3633 20.8439C13.7295 21.0669 13.1805 21.4811 12.7922 22.0294C12.4039 22.5776 12.1953 23.2329 12.1953 23.9048C12.1953 24.5767 12.4039 25.232 12.7922 25.7802C13.1805 26.3285 13.7295 26.7427 14.3633 26.9657C14.5861 29.1015 15.5951 31.0783 17.1943 32.5115C18.7935 33.9448 20.8685 34.7322 23.0159 34.7206H23.2647C25.3413 34.6201 27.3151 33.787 28.8357 32.3693C30.3564 30.9516 31.3256 29.0409 31.5712 26.9765C32.2124 26.7661 32.7721 26.3611 33.1724 25.8177C33.5726 25.2743 33.7935 24.6197 33.8042 23.9449C33.8149 23.2701 33.6149 22.6088 33.2321 22.053C32.8493 21.4972 32.3028 21.0745 31.6685 20.8439ZM23.2106 32.5574C21.6449 32.6027 20.1157 32.0802 18.9051 31.0863C17.6944 30.0923 16.8842 28.6941 16.6238 27.1495H29.354C29.09 28.6117 28.3394 29.9417 27.2241 30.9234C26.1089 31.9052 24.6944 32.481 23.2106 32.5574ZM30.5869 24.9864H15.4449C15.158 24.9864 14.8829 24.8724 14.6801 24.6696C14.4772 24.4668 14.3633 24.1917 14.3633 23.9048C14.3633 23.618 14.4772 23.3428 14.6801 23.14C14.8829 22.9372 15.158 22.8232 15.4449 22.8232H17.608C17.8949 22.8232 18.17 22.7093 18.3728 22.5064C18.5756 22.3036 18.6896 22.0285 18.6896 21.7417C18.6896 21.4548 18.5756 21.1797 18.3728 20.9769C18.17 20.774 17.8949 20.6601 17.608 20.6601H16.5264C16.5749 19.5381 16.8955 18.4447 17.4608 17.4743C18.0261 16.5038 18.819 15.6855 19.7712 15.09V18.4969C19.7712 18.7838 19.8851 19.0589 20.088 19.2617C20.2908 19.4645 20.5659 19.5785 20.8528 19.5785C21.1396 19.5785 21.4147 19.4645 21.6175 19.2617C21.8204 19.0589 21.9343 18.7838 21.9343 18.4969V14.268C22.2279 14.2189 22.524 14.1864 22.8212 14.1706H23.0159C23.3784 14.1757 23.7399 14.2083 24.0975 14.268V18.4969C24.0975 18.7838 24.2114 19.0589 24.4143 19.2617C24.6171 19.4645 24.8922 19.5785 25.1791 19.5785C25.4659 19.5785 25.741 19.4645 25.9439 19.2617C26.1467 19.0589 26.2606 18.7838 26.2606 18.4969V15.0575C26.7194 15.3232 27.1475 15.6387 27.5369 15.9985C28.1605 16.604 28.6561 17.3287 28.9942 18.1295C29.3324 18.9303 29.5062 19.7908 29.5054 20.6601H28.4238C28.1369 20.6601 27.8618 20.774 27.659 20.9769C27.4562 21.1797 27.3422 21.4548 27.3422 21.7417C27.3422 22.0285 27.4562 22.3036 27.659 22.5064C27.8618 22.7093 28.1369 22.8232 28.4238 22.8232H30.5869C30.8738 22.8232 31.1489 22.9372 31.3517 23.14C31.5546 23.3428 31.6685 23.618 31.6685 23.9048C31.6685 24.1917 31.5546 24.4668 31.3517 24.6696C31.1489 24.8724 30.8738 24.9864 30.5869 24.9864Z" fill="#81BA0F"/>
</svg>
