<svg width="46" height="47" viewBox="0 0 46 47" fill="none" xmlns="http://www.w3.org/2000/svg">
<rect x="0.5" y="0.875" width="45" height="45" rx="22.5" fill="white"/>
<rect x="0.5" y="0.875" width="45" height="45" rx="22.5" stroke="#EAF1FF"/>
<path d="M33.1979 18.2922L25.5495 11.5871C24.8484 10.96 23.9407 10.6133 23 10.6133C22.0594 10.6133 21.1517 10.96 20.4506 11.5871L12.8022 18.2922C12.3973 18.6543 12.0742 19.0985 11.8544 19.5953C11.6346 20.092 11.5231 20.6299 11.5275 21.1731V32.3142C11.5275 33.3284 11.9304 34.3011 12.6475 35.0183C13.3647 35.7355 14.3374 36.1384 15.3517 36.1384H30.6484C31.6627 36.1384 32.6354 35.7355 33.3525 35.0183C34.0697 34.3011 34.4726 33.3284 34.4726 32.3142V21.1603C34.4751 20.6193 34.3628 20.0839 34.1431 19.5894C33.9233 19.095 33.6012 18.6529 33.1979 18.2922ZM25.5495 33.5889H20.4506V27.2153C20.4506 26.8772 20.5849 26.553 20.8239 26.3139C21.063 26.0749 21.3872 25.9406 21.7253 25.9406H24.2748C24.6128 25.9406 24.9371 26.0749 25.1761 26.3139C25.4152 26.553 25.5495 26.8772 25.5495 27.2153V33.5889ZM31.9232 32.3142C31.9232 32.6523 31.7889 32.9765 31.5498 33.2156C31.3107 33.4546 30.9865 33.5889 30.6484 33.5889H28.099V27.2153C28.099 26.201 27.6961 25.2283 26.9789 24.5112C26.2617 23.794 25.289 23.3911 24.2748 23.3911H21.7253C20.7111 23.3911 19.7384 23.794 19.0212 24.5112C18.304 25.2283 17.9011 26.201 17.9011 27.2153V33.5889H15.3517C15.0136 33.5889 14.6893 33.4546 14.4503 33.2156C14.2112 32.9765 14.0769 32.6523 14.0769 32.3142V21.1603C14.0772 20.9793 14.1159 20.8005 14.1907 20.6356C14.2654 20.4708 14.3744 20.3237 14.5103 20.2043L22.1587 13.5119C22.3913 13.3076 22.6904 13.1949 23 13.1949C23.3097 13.1949 23.6087 13.3076 23.8414 13.5119L31.4897 20.2043C31.6257 20.3237 31.7347 20.4708 31.8094 20.6356C31.8842 20.8005 31.9229 20.9793 31.9232 21.1603V32.3142Z" fill="#81BA0F"/>
</svg>
