<svg width="46" height="47" viewBox="0 0 46 47" fill="none" xmlns="http://www.w3.org/2000/svg">
<rect x="0.5" y="0.875" width="45" height="45" rx="22.5" fill="white"/>
<rect x="0.5" y="0.875" width="45" height="45" rx="22.5" stroke="#EAF1FF"/>
<path d="M24.4233 26.3304H27.1357V25.1485H24.181C24.0243 25.1485 23.874 25.0862 23.7631 24.9754C23.6523 24.8646 23.59 24.7143 23.59 24.5576V22.7375C24.308 22.323 24.9043 21.7269 25.3192 21.0092C25.7341 20.2914 25.953 19.4772 25.9538 18.6482V15.1025C25.9538 13.8487 25.4557 12.6462 24.5692 11.7597C23.6826 10.8731 22.4801 10.375 21.2263 10.375C19.9725 10.375 18.77 10.8731 17.8834 11.7597C16.9968 12.6462 16.4988 13.8487 16.4988 15.1025V18.6482C16.4996 19.4772 16.7185 20.2914 17.1333 21.0092C17.5482 21.7269 18.1446 22.323 18.8625 22.7375V24.5576C18.8625 24.7143 18.8003 24.8646 18.6894 24.9754C18.5786 25.0862 18.4283 25.1485 18.2716 25.1485H15.9078C15.1242 25.1485 14.3727 25.4598 13.8185 26.0139C13.2644 26.568 12.9531 27.3196 12.9531 28.1032V35.7854C12.9531 35.9422 13.0154 36.0925 13.1262 36.2033C13.237 36.3141 13.3873 36.3764 13.5441 36.3764H21.2263C21.383 36.3764 21.5333 36.3141 21.6441 36.2033C21.755 36.0925 21.8172 35.9422 21.8172 35.7854V28.9364L24.4233 26.3304ZM24.7719 14.8839C24.551 15.1371 24.2785 15.3403 23.9728 15.4799C23.6671 15.6195 23.3352 15.6923 22.9991 15.6935C22.3722 15.6935 21.771 15.4444 21.3277 15.0011C20.8844 14.5578 20.6353 13.9566 20.6353 13.3297C20.6365 12.9936 20.7093 12.6617 20.8489 12.356C20.9885 12.0503 21.1917 11.7778 21.4449 11.5569C22.3104 11.6088 23.1268 11.976 23.7398 12.589C24.3528 13.2021 24.72 14.0185 24.7719 14.8839ZM19.7667 11.876C19.5607 12.333 19.4539 12.8284 19.4535 13.3297C19.4547 13.6003 19.4864 13.8699 19.548 14.1334C19.0103 14.4669 18.3643 14.5792 17.7457 14.4466C17.8515 13.8874 18.0904 13.3618 18.4421 12.9144C18.7939 12.467 19.2482 12.1108 19.7667 11.876ZM17.6806 18.6482V15.6403C17.876 15.6729 18.0735 15.6907 18.2716 15.6935C18.8807 15.6916 19.479 15.5329 20.009 15.2325C20.4972 16.0057 21.2654 16.5604 22.1529 16.7806C23.0405 17.0009 23.9788 16.8697 24.7719 16.4144V18.6482C24.7719 19.5885 24.3984 20.4904 23.7334 21.1553C23.0685 21.8202 22.1667 22.1938 21.2263 22.1938C20.2859 22.1938 19.3841 21.8202 18.7191 21.1553C18.0542 20.4904 17.6806 19.5885 17.6806 18.6482ZM21.2263 23.3757C21.6251 23.3731 22.022 23.3215 22.4082 23.222V24.5576C22.4091 24.8318 22.4736 25.1021 22.5966 25.3471C22.7197 25.5922 22.8979 25.8054 23.1173 25.9699L21.2263 27.8609L19.3353 25.9699C19.5547 25.8054 19.7329 25.5922 19.8559 25.3471C19.979 25.1021 20.0435 24.8318 20.0444 24.5576V23.222C20.4306 23.3215 20.8275 23.3731 21.2263 23.3757ZM17.6806 35.1945V32.2398H16.4988V35.1945H14.135V28.1032C14.135 27.633 14.3218 27.1821 14.6543 26.8496C14.9867 26.5172 15.4376 26.3304 15.9078 26.3304H18.0293L20.6353 28.9364V35.1945H17.6806ZM31.8632 35.1945V25.7394C31.8632 25.5827 31.801 25.4324 31.6901 25.3216C31.5793 25.2108 31.429 25.1485 31.2723 25.1485H28.9085C28.7518 25.1485 28.6015 25.2108 28.4907 25.3216C28.3798 25.4324 28.3176 25.5827 28.3176 25.7394V35.1945H27.1357V29.876C27.1357 29.7193 27.0734 29.569 26.9626 29.4582C26.8518 29.3473 26.7015 29.2851 26.5448 29.2851H24.181C24.0243 29.2851 23.874 29.3473 23.7631 29.4582C23.6523 29.569 23.59 29.7193 23.59 29.876V35.1945H22.4082V36.3764H33.0451V35.1945H31.8632ZM24.7719 35.1945V30.467H25.9538V35.1945H24.7719ZM29.4995 35.1945V26.3304H30.6813V35.1945H29.4995ZM29.4995 23.9666H28.3176V22.7847H30.6813V22.1938H28.9085C28.7518 22.1938 28.6015 22.1315 28.4907 22.0207C28.3798 21.9099 28.3176 21.7596 28.3176 21.6029V19.83C28.3176 19.6733 28.3798 19.523 28.4907 19.4122C28.6015 19.3014 28.7518 19.2391 28.9085 19.2391H29.4995V18.6482H30.6813V19.2391H31.8632V20.421H29.4995V21.0119H31.2723C31.429 21.0119 31.5793 21.0742 31.6901 21.185C31.801 21.2958 31.8632 21.4461 31.8632 21.6029V23.3757C31.8632 23.5324 31.801 23.6827 31.6901 23.7935C31.5793 23.9044 31.429 23.9666 31.2723 23.9666H30.6813V24.5576H29.4995V23.9666Z" fill="#81BA0F"/>
</svg>
