<svg width="46" height="47" viewBox="0 0 46 47" fill="none" xmlns="http://www.w3.org/2000/svg">
<rect x="0.5" y="0.875" width="45" height="45" rx="22.5" fill="white"/>
<rect x="0.5" y="0.875" width="45" height="45" rx="22.5" stroke="#EAF1FF"/>
<path d="M35.9402 18.9846L35.9017 18.8305C35.9017 18.8305 35.8632 18.792 35.8632 18.7535L33.0518 10.8584C32.9363 10.4733 32.5896 10.2422 32.166 10.2422H13.911C13.5259 10.2422 13.1793 10.4733 13.0252 10.8584L10.1753 18.715C10.1753 18.7535 10.1368 18.792 10.1368 18.869L10.0212 19.1386C9.98273 19.2156 9.98273 19.2927 9.98273 19.3697C9.9057 19.7163 9.86719 20.0244 9.86719 20.294C9.86719 21.9885 10.9455 23.452 12.486 24.0297V35.5835C12.486 36.0842 12.9097 36.5078 13.4104 36.5078H32.9748C33.4754 36.5078 33.8991 36.0842 33.8991 35.5835V23.8757C35.2085 23.221 36.1328 21.873 36.1328 20.294C36.1328 20.0244 36.0943 19.7163 36.0173 19.4082C36.0558 19.2541 36.0173 19.1386 35.9402 18.9846ZM32.089 34.6592H14.3732V24.2608C14.4117 24.2608 14.4887 24.2223 14.5272 24.2223C15.49 24.0682 16.3373 23.5676 16.9535 22.8358C17.6853 23.7216 18.7636 24.2608 19.996 24.2608C21.2284 24.2608 22.3068 23.7216 23.0385 22.8358C23.7703 23.7216 24.8486 24.2608 26.081 24.2608C27.3134 24.2608 28.3918 23.7216 29.1235 22.8358C29.6627 23.452 30.3559 23.9142 31.1647 24.1453H31.2032C31.2802 24.1838 31.3958 24.1838 31.4728 24.1838C31.5113 24.1838 31.5883 24.2223 31.6268 24.2223C31.7039 24.2223 31.7809 24.2223 31.8579 24.2608H32.012V34.6592H32.089ZM32.7822 22.3352C32.6667 22.3737 32.5896 22.3737 32.5126 22.4122C32.3971 22.4122 32.3201 22.4507 32.2045 22.4507C32.0505 22.4507 31.9349 22.4507 31.7809 22.4122C31.6653 22.3737 31.5498 22.3737 31.4728 22.2966H31.4343C30.7025 21.9885 30.1634 21.2953 30.1248 20.4866V20.3325C30.1248 19.8318 29.7012 19.4082 29.2005 19.4082C28.6999 19.4082 28.2377 19.7933 28.2377 20.294V20.4866C28.1607 21.2953 27.6215 21.9885 26.9283 22.2966H26.8898L26.5432 22.4122H26.081C25.927 22.4122 25.8114 22.4122 25.6574 22.3737C25.5418 22.3352 25.4263 22.3352 25.3493 22.2581H25.3108C24.579 21.95 24.0398 21.2568 24.0013 20.448V20.294C24.0013 19.7933 23.5777 19.3697 23.077 19.3697C22.5764 19.3697 22.1527 19.7933 22.1527 20.294V20.4866C22.0757 21.2953 21.5365 21.9885 20.8433 22.2966H20.8048L20.4582 22.4122H19.996C19.8805 22.4122 19.7264 22.4122 19.5724 22.3737C19.4568 22.3352 19.3413 22.3352 19.2258 22.2581H19.1872C18.4555 21.95 17.9163 21.2568 17.8778 20.448V20.294C17.8778 19.7933 17.4542 19.3697 16.9535 19.3697C16.4529 19.3697 16.0292 19.7933 16.0292 20.294V20.4866C15.9522 21.2953 15.413 21.9885 14.7198 22.2966H14.6813C14.5657 22.3352 14.4502 22.3737 14.3732 22.4122H13.8725C13.7955 22.4122 13.7185 22.4122 13.6414 22.3737H13.5259C12.5246 22.1811 11.7543 21.3338 11.7543 20.294C11.7543 20.1399 11.7928 19.9474 11.8698 19.7163C11.8698 19.6778 11.8698 19.6393 11.9084 19.6393L14.6042 12.1293H31.5498L34.1687 19.4467C34.1687 19.4467 34.1687 19.4852 34.2072 19.5237L34.2457 19.6778C34.2457 19.7163 34.2457 19.7548 34.2842 19.7548C34.3612 19.9859 34.3997 20.1784 34.3997 20.3325C34.3227 21.2568 33.668 22.0656 32.7822 22.3352Z" fill="#81BA0F"/>
</svg>
