<svg width="30" height="30" viewBox="0 0 30 30" fill="none" xmlns="http://www.w3.org/2000/svg">
<g id="circum:bank">
<path id="Vector" d="M24.3804 22.4291V12.9529C24.7824 12.9384 25.1688 12.7942 25.482 12.5418C25.7952 12.2895 26.0183 11.9425 26.1179 11.5529C26.2291 11.1554 26.2032 10.7321 26.0445 10.3512C25.8858 9.9702 25.6034 9.65377 25.2429 9.45285L15.9304 4.07785C15.6461 3.91797 15.3254 3.83398 14.9992 3.83398C14.673 3.83398 14.3523 3.91797 14.0679 4.07785L4.75542 9.45285C4.39493 9.65377 4.11258 9.9702 3.95385 10.3512C3.79512 10.7321 3.76925 11.1554 3.88042 11.5529C3.98344 11.9547 4.21771 12.3107 4.54606 12.5644C4.8744 12.818 5.27803 12.9547 5.69292 12.9529H5.85542V22.4154H5.70542C5.20814 22.4154 4.73123 22.6129 4.3796 22.9645C4.02796 23.3162 3.83042 23.7931 3.83042 24.2904C3.83042 24.7876 4.02796 25.2645 4.3796 25.6162C4.73123 25.9678 5.20814 26.1654 5.70542 26.1654H24.2929C24.7627 26.1376 25.2048 25.9342 25.5316 25.5956C25.8583 25.257 26.0458 24.8079 26.0569 24.3375C26.0679 23.8671 25.9016 23.4097 25.591 23.0562C25.2805 22.7026 24.8484 22.4788 24.3804 22.4291ZM5.69292 11.7029C5.55515 11.7011 5.42174 11.6543 5.31305 11.5696C5.20435 11.485 5.12635 11.3671 5.09093 11.2339C5.05552 11.1007 5.06464 10.9597 5.11691 10.8322C5.16918 10.7047 5.26173 10.5978 5.38042 10.5279L14.6929 5.1666C14.7851 5.11027 14.8911 5.08047 14.9992 5.08047C15.1072 5.08047 15.2132 5.11027 15.3054 5.1666L24.6242 10.5279C24.7479 10.5945 24.8455 10.7009 24.9013 10.8299C24.9571 10.9589 24.9678 11.1029 24.9317 11.2387C24.8956 11.3745 24.8147 11.4942 24.7022 11.5784C24.5897 11.6626 24.4522 11.7065 24.3117 11.7029H5.69292ZM23.1304 12.9529V22.4154H18.6242V12.9529H23.1304ZM17.3679 12.9529V22.4154H12.8554V12.9529H17.3679ZM11.6054 12.9529V22.4154H7.10542V12.9529H11.6054ZM24.2929 24.9154H5.70542C5.53966 24.9154 5.38069 24.8495 5.26348 24.7323C5.14627 24.6151 5.08042 24.4561 5.08042 24.2904C5.08042 24.1246 5.14627 23.9656 5.26348 23.8484C5.38069 23.7312 5.53966 23.6654 5.70542 23.6654H24.2929C24.4587 23.6654 24.6177 23.7312 24.7349 23.8484C24.8521 23.9656 24.9179 24.1246 24.9179 24.2904C24.9179 24.4561 24.8521 24.6151 24.7349 24.7323C24.6177 24.8495 24.4587 24.9154 24.2929 24.9154Z" fill="#81BA0F"/>
</g>
</svg>
