<svg width="24" height="22" viewBox="0 0 24 22" fill="none" xmlns="http://www.w3.org/2000/svg">
<g id="bi:house-down" clip-path="url(#clip0_11865_1652)">
<g id="Group">
<path id="Vector" d="M10.9846 2.06274C11.2542 1.80496 11.6197 1.66016 12.0009 1.66016C12.3821 1.66016 12.7476 1.80496 13.0172 2.06274L16.3134 5.21561V3.43774C16.3134 3.2554 16.3891 3.08053 16.5239 2.9516C16.6587 2.82267 16.8415 2.75024 17.0322 2.75024H18.4697C18.6603 2.75024 18.8431 2.82267 18.9779 2.9516C19.1127 3.08053 19.1884 3.2554 19.1884 3.43774V7.96561L22.5723 11.201C22.6391 11.2649 22.6921 11.3408 22.7283 11.4243C22.7645 11.5078 22.7831 11.5973 22.7831 11.6877C22.7831 11.7781 22.7645 11.8676 22.7283 11.9512C22.6921 12.0347 22.6391 12.1106 22.5723 12.1745C22.5055 12.2384 22.4261 12.2891 22.3388 12.3237C22.2515 12.3583 22.1579 12.3761 22.0634 12.3761C21.9689 12.3761 21.8753 12.3583 21.788 12.3237C21.7007 12.2891 21.6214 12.2384 21.5545 12.1745L12.0009 3.03486L4.81341 9.90986V18.5627C4.81341 18.7451 4.88913 18.9199 5.02393 19.0489C5.15872 19.1778 5.34153 19.2502 5.53216 19.2502H11.2822C11.4728 19.2502 11.6556 19.3227 11.7904 19.4516C11.9252 19.5805 12.0009 19.7554 12.0009 19.9377C12.0009 20.1201 11.9252 20.2949 11.7904 20.4239C11.6556 20.5528 11.4728 20.6252 11.2822 20.6252H5.53216C4.96028 20.6252 4.41183 20.4079 4.00746 20.0211C3.60308 19.6344 3.37591 19.1097 3.37591 18.5627V11.2849L2.44728 12.1745C2.38046 12.2384 2.30112 12.2891 2.21381 12.3237C2.1265 12.3583 2.03291 12.3761 1.93841 12.3761C1.8439 12.3761 1.75032 12.3583 1.66301 12.3237C1.57569 12.2891 1.49636 12.2384 1.42953 12.1745C1.36271 12.1106 1.3097 12.0347 1.27353 11.9512C1.23736 11.8676 1.21875 11.7781 1.21875 11.6877C1.21875 11.5973 1.23736 11.5078 1.27353 11.4243C1.3097 11.3408 1.36271 11.2649 1.42953 11.201L10.9846 2.06274Z" fill="#81BA0F"/>
<path id="Vector_2" d="M18.4688 22C17.1344 22 15.8547 21.493 14.9111 20.5905C13.9676 19.6879 13.4375 18.4639 13.4375 17.1875C13.4375 15.9111 13.9676 14.6871 14.9111 13.7845C15.8547 12.882 17.1344 12.375 18.4688 12.375C19.8031 12.375 21.0828 12.882 22.0264 13.7845C22.9699 14.6871 23.5 15.9111 23.5 17.1875C23.5 18.4639 22.9699 19.6879 22.0264 20.5905C21.0828 21.493 19.8031 22 18.4688 22ZM17.9599 13.9507L15.8036 16.0132C15.6689 16.1423 15.5932 16.3174 15.5933 16.4998C15.5935 16.6822 15.6694 16.8572 15.8043 16.9861C15.9393 17.115 16.1223 17.1873 16.313 17.1872C16.5037 17.1871 16.6866 17.1145 16.8214 16.9854L17.75 16.0971L17.75 19.9375C17.75 20.1198 17.8257 20.2947 17.9605 20.4236C18.0953 20.5526 18.2781 20.625 18.4688 20.625C18.6594 20.625 18.8422 20.5526 18.977 20.4236C19.1118 20.2947 19.1875 20.1198 19.1875 19.9375L19.1875 16.0971L20.1161 16.9854C20.2509 17.1145 20.4338 17.1871 20.6245 17.1872C20.8152 17.1873 20.9982 17.115 21.1332 16.9861C21.2681 16.8572 21.344 16.6822 21.3442 16.4998C21.3443 16.3174 21.2686 16.1423 21.1339 16.0132L18.9776 13.9507C18.9109 13.8867 18.8315 13.8359 18.7442 13.8013C18.6569 13.7666 18.5633 13.7488 18.4688 13.7488C18.3742 13.7488 18.2806 13.7666 18.1933 13.8013C18.106 13.8359 18.0266 13.8867 17.9599 13.9507Z" fill="#81BA0F"/>
</g>
</g>
<defs>
<clipPath id="clip0_11865_1652">
<rect width="23" height="22" fill="white" transform="translate(0.5)"/>
</clipPath>
</defs>
</svg>
