<svg width="28" height="28" viewBox="0 0 28 28" fill="none" xmlns="http://www.w3.org/2000/svg">
<g id="hugeicons:money-03">
<g id="Group">
<path id="Vector" d="M22.1673 12.9997C21.78 12.9441 21.3909 12.9024 21.0007 12.8748M7.00065 15.1265C6.60243 15.0985 6.21354 15.0569 5.83398 15.0017M16.9173 14.0007C16.9173 14.7742 16.61 15.5161 16.063 16.063C15.5161 16.61 14.7742 16.9173 14.0007 16.9173C13.2271 16.9173 12.4852 16.61 11.9383 16.063C11.3913 15.5161 11.084 14.7742 11.084 14.0007C11.084 13.2271 11.3913 12.4852 11.9383 11.9383C12.4852 11.3913 13.2271 11.084 14.0007 11.084C14.7742 11.084 15.5161 11.3913 16.063 11.9383C16.61 12.4852 16.9173 13.2271 16.9173 14.0007Z" stroke="#81BA0F" stroke-width="1.5" stroke-linecap="round" stroke-linejoin="round"/>
<path id="Vector_2" d="M14.0007 22.7507C12.4467 23.4763 10.4038 23.9173 8.16732 23.9173C6.92365 23.9173 5.74065 23.7808 4.66732 23.5358C2.91732 23.1345 2.33398 22.081 2.33398 20.2843V7.71698C2.33398 6.56782 3.54732 5.77915 4.66732 6.03582C5.74065 6.28082 6.92365 6.41732 8.16732 6.41732C10.4038 6.41732 12.4467 5.97632 14.0007 5.25065C15.5547 4.52498 17.5975 4.08398 19.834 4.08398C21.0777 4.08398 22.2607 4.22048 23.334 4.46548C25.1797 4.88898 25.6673 5.97398 25.6673 7.71698V20.2843C25.6673 21.4335 24.454 22.2222 23.334 21.9655C22.2607 21.7205 21.0777 21.584 19.834 21.584C17.5975 21.584 15.5547 22.025 14.0007 22.7507Z" stroke="#81BA0F" stroke-width="1.5" stroke-linecap="round" stroke-linejoin="round"/>
</g>
</g>
</svg>
