<svg width="574" height="430" viewBox="0 0 574 430" fill="none" xmlns="http://www.w3.org/2000/svg">
<path d="M421.208 338.127L306.869 443.373H287.835V386.019V369.461C287.835 349.024 294.481 331.457 306.311 320.56L421.208 214.772C433.064 203.875 439.684 186.308 439.684 165.872C439.684 201.471 439.684 237.07 439.684 272.63V289.188C439.684 309.625 433.038 327.192 421.208 338.088V338.127Z" fill="#F0F4F8"/>
<path d="M573.055 443.373L458.158 337.584C446.301 326.687 439.682 309.121 439.682 288.684C439.682 324.283 439.682 359.882 439.682 395.442V412.001C439.682 423.596 441.835 434.299 445.849 443.334H573.055V443.373Z" fill="#F0F4F8"/>
<path d="M117.485 338.127L3.14642 443.373H-15.8878V386.019V369.461C-15.8878 349.024 -9.24178 331.457 2.58818 320.56L117.485 214.772C129.341 203.875 135.961 186.308 135.961 165.872C135.961 201.471 135.961 237.07 135.961 272.63V289.188C135.961 309.625 129.315 327.192 117.485 338.088V338.127Z" fill="#F0F4F8"/>
<path d="M154.438 220.163L269.335 325.951C281.191 336.848 287.811 354.415 287.811 374.852C287.811 339.253 287.811 303.654 287.811 268.093V251.535C287.811 231.098 281.165 213.532 269.335 202.635L154.438 96.8459C142.581 85.9491 135.962 68.3823 135.962 47.9458C135.962 83.5448 135.962 119.144 135.962 154.704V171.263C135.962 191.699 142.608 209.266 154.438 220.163Z" fill="#F0F4F8"/>
<path d="M117.485 96.8443L2.58818 202.633C-9.26837 213.53 -15.8878 231.097 -15.8878 251.533C-15.8878 215.934 -15.8878 180.335 -15.8878 144.775V128.216C-15.8878 107.78 -9.24178 90.2132 2.58818 79.3163L117.485 -26.4724C129.341 -37.3693 135.961 -54.9361 135.961 -75.3726C135.961 -39.7736 135.961 -4.17456 135.961 31.3857V47.9442C135.961 68.3807 129.315 85.9475 117.485 96.8443Z" fill="#F0F4F8"/>
<path d="M268.986 443.373L154.09 337.584C142.233 326.687 135.614 309.121 135.614 288.684C135.614 324.283 135.614 359.882 135.614 395.442V412.001C135.614 423.596 137.767 434.299 141.781 443.334H268.986V443.373Z" fill="#F0F4F8"/>
</svg>
