<svg width="24" height="25" viewBox="0 0 24 25" fill="none" xmlns="http://www.w3.org/2000/svg">
<path d="M12 3.20703C6.6225 3.20703 2.25 7.57953 2.25 12.957C2.25 18.3345 6.6225 22.707 12 22.707C17.3775 22.707 21.75 18.3345 21.75 12.957C21.75 7.57953 17.3775 3.20703 12 3.20703ZM12.75 21.1695V15.207H15C15.4125 15.207 15.75 14.8695 15.75 14.457C15.75 14.0445 15.4125 13.707 15 13.707H12.75V11.442C12.75 11.0445 12.9075 10.6695 13.1925 10.392C13.47 10.1145 13.845 9.95703 14.2425 9.95703H15.75C16.1625 9.95703 16.5 9.61953 16.5 9.20703C16.5 8.79453 16.1625 8.45703 15.75 8.45703H14.2425C13.4475 8.45703 12.6975 8.76453 12.135 9.32703C11.565 9.88953 11.25 10.6395 11.25 11.4345V13.707H9C8.5875 13.707 8.25 14.0445 8.25 14.457C8.25 14.8695 8.5875 15.207 9 15.207H11.25V21.1695C7.05 20.787 3.75 17.247 3.75 12.957C3.75 8.40453 7.4475 4.70703 12 4.70703C16.5525 4.70703 20.25 8.40453 20.25 12.957C20.25 17.2545 16.95 20.7945 12.75 21.1695Z" fill="white"/>
</svg>
