<svg width="24" height="25" viewBox="0 0 24 25" fill="none" xmlns="http://www.w3.org/2000/svg">
<path fill-rule="evenodd" clip-rule="evenodd" d="M2.625 4.50586C2.625 3.67743 3.29657 3.00586 4.125 3.00586H19.875C20.7034 3.00586 21.375 3.67743 21.375 4.50586V20.2559C21.375 21.0843 20.7034 21.7559 19.875 21.7559H4.125C3.29657 21.7559 2.625 21.0843 2.625 20.2559V4.50586ZM19.875 4.50586H4.125V20.2559H19.875V4.50586Z" fill="white"/>
<path fill-rule="evenodd" clip-rule="evenodd" d="M11.25 10.1309C11.6642 10.1309 12 10.4666 12 10.8809V16.8809C12 17.2951 11.6642 17.6309 11.25 17.6309C10.8358 17.6309 10.5 17.2951 10.5 16.8809V10.8809C10.5 10.4666 10.8358 10.1309 11.25 10.1309Z" fill="white"/>
<path fill-rule="evenodd" clip-rule="evenodd" d="M8.25 10.1309C8.66421 10.1309 9 10.4666 9 10.8809V16.8809C9 17.2951 8.66421 17.6309 8.25 17.6309C7.83579 17.6309 7.5 17.2951 7.5 16.8809V10.8809C7.5 10.4666 7.83579 10.1309 8.25 10.1309Z" fill="white"/>
<path fill-rule="evenodd" clip-rule="evenodd" d="M13.875 11.6309C13.3777 11.6309 12.9008 11.8284 12.5492 12.18C12.1975 12.5317 12 13.0086 12 13.5059C12 13.9201 11.6642 14.2559 11.25 14.2559C10.8358 14.2559 10.5 13.9201 10.5 13.5059C10.5 12.6108 10.8556 11.7523 11.4885 11.1194C12.1214 10.4864 12.9799 10.1309 13.875 10.1309C14.7701 10.1309 15.6285 10.4864 16.2615 11.1194C16.8944 11.7523 17.25 12.6108 17.25 13.5059V16.8809C17.25 17.2951 16.9142 17.6309 16.5 17.6309C16.0858 17.6309 15.75 17.2951 15.75 16.8809V13.5059C15.75 13.0086 15.5525 12.5317 15.2008 12.18C14.8492 11.8284 14.3723 11.6309 13.875 11.6309Z" fill="white"/>
<path d="M8.25 9.00586C8.87132 9.00586 9.375 8.50218 9.375 7.88086C9.375 7.25954 8.87132 6.75586 8.25 6.75586C7.62868 6.75586 7.125 7.25954 7.125 7.88086C7.125 8.50218 7.62868 9.00586 8.25 9.00586Z" fill="white"/>
</svg>
