<svg width="25" height="25" viewBox="0 0 25 25" fill="none" xmlns="http://www.w3.org/2000/svg">
<path fill-rule="evenodd" clip-rule="evenodd" d="M11.75 3.58203C11.75 3.16782 12.0858 2.83203 12.5 2.83203H16.25C16.6642 2.83203 17 3.16782 17 3.58203C17 4.77551 17.4741 5.9201 18.318 6.76401C19.1619 7.60793 20.3065 8.08203 21.5 8.08203C21.9142 8.08203 22.25 8.41782 22.25 8.83203V12.582C22.25 12.996 21.9145 13.3317 21.5005 13.332C19.9271 13.3331 18.384 12.9532 17 12.2336V15.5817C17.0006 16.9371 16.6145 18.2649 15.8871 19.4087C15.1597 20.5525 14.1211 21.4651 12.8931 22.0393C11.6652 22.6135 10.2989 22.8255 8.95473 22.6504C7.61052 22.4753 6.34416 21.9204 5.30429 21.0508C4.26441 20.1812 3.49418 19.033 3.08401 17.741C2.67383 16.449 2.64074 15.0668 2.98861 13.7567C3.33648 12.4465 4.05088 11.2628 5.04794 10.3444C6.04501 9.42602 7.28336 8.81114 8.61765 8.57193C8.83623 8.53274 9.06095 8.59243 9.23127 8.73493C9.40159 8.87743 9.5 9.08809 9.5 9.31016V13.2102C9.5 13.4998 9.33317 13.7636 9.07143 13.8878C8.76826 14.0316 8.50924 14.2541 8.32139 14.5321C8.13354 14.8102 8.02373 15.1335 8.00343 15.4684C7.98314 15.8034 8.05309 16.1376 8.20599 16.4363C8.35889 16.735 8.58914 16.9871 8.87272 17.1665C9.1563 17.3459 9.48281 17.4458 9.8182 17.456C10.1536 17.4662 10.4856 17.3861 10.7795 17.2243C11.0734 17.0624 11.3185 16.8247 11.4892 16.5358C11.6599 16.2469 11.75 15.9176 11.75 15.582V3.58203ZM13.25 4.33203V15.582C13.25 16.186 13.0878 16.779 12.7806 17.2989C12.4733 17.8189 12.0321 18.2469 11.5031 18.5382C10.974 18.8296 10.3765 18.9736 9.77276 18.9553C9.16906 18.937 8.58134 18.7571 8.0709 18.4342C7.56045 18.1113 7.146 17.6574 6.87078 17.1198C6.59555 16.5822 6.46964 15.9806 6.50618 15.3777C6.54272 14.7748 6.74037 14.1928 7.0785 13.6924C7.32424 13.3287 7.63762 13.0177 8 12.7756V10.2818C7.28545 10.5344 6.62624 10.93 6.06416 11.4477C5.27701 12.1727 4.71301 13.1073 4.43838 14.1416C4.16374 15.1759 4.18987 16.2671 4.51369 17.2872C4.83751 18.3072 5.44559 19.2136 6.26654 19.9002C7.08749 20.5867 8.08726 21.0248 9.14847 21.163C10.2097 21.3012 11.2883 21.1338 12.2577 20.6805C13.2271 20.2272 14.0471 19.5067 14.6214 18.6037C15.1957 17.7007 15.5005 16.6526 15.5 15.5824V10.8945C15.5 10.6133 15.6574 10.3556 15.9076 10.2272C16.1579 10.0988 16.4589 10.1213 16.6874 10.2853C17.8859 11.1458 19.2896 11.6661 20.75 11.7984V9.53499C19.4352 9.36938 18.2043 8.77164 17.2574 7.82467C16.3104 6.8777 15.7127 5.64678 15.547 4.33203H13.25Z" fill="white"/>
</svg>
