<svg width="25" height="25" viewBox="0 0 25 25" fill="none" xmlns="http://www.w3.org/2000/svg">
<path fill-rule="evenodd" clip-rule="evenodd" d="M10.6461 9.29535C10.89 9.16483 11.1859 9.17914 11.416 9.33257L15.916 12.3326C16.1247 12.4717 16.25 12.7058 16.25 12.9566C16.25 13.2074 16.1247 13.4415 15.916 13.5806L11.416 16.5806C11.1859 16.7341 10.89 16.7484 10.6461 16.6179C10.4022 16.4873 10.25 16.2332 10.25 15.9566V9.9566C10.25 9.68001 10.4022 9.42586 10.6461 9.29535ZM11.75 11.358V14.5552L14.1479 12.9566L11.75 11.358Z" fill="white"/>
<path fill-rule="evenodd" clip-rule="evenodd" d="M12.4989 4.74417L12.4862 4.74414L12.4391 4.74416C12.3983 4.74425 12.3387 4.74455 12.2623 4.74536C12.1096 4.74698 11.8892 4.75066 11.6154 4.75888C11.0684 4.7753 10.3059 4.8099 9.44276 4.88278C7.7355 5.02692 5.56196 5.32607 3.88856 5.96546L3.87754 5.96977C3.54883 6.10135 3.25565 6.30833 3.02164 6.57403C2.78762 6.83974 2.61933 7.15672 2.53033 7.49941L2.5296 7.50223C2.29605 8.41615 2 10.1109 2 12.9567C2 15.8025 2.29605 17.4972 2.5296 18.4111L2.53033 18.414C2.61933 18.7567 2.78762 19.0736 3.02164 19.3393C3.25565 19.605 3.54883 19.812 3.87754 19.9436L3.88856 19.9479C5.56196 20.5873 7.7355 20.8864 9.44276 21.0306C10.3059 21.1035 11.0684 21.1381 11.6154 21.1545C11.8892 21.1627 12.1096 21.1664 12.2623 21.168C12.3387 21.1688 12.3983 21.1691 12.4391 21.1692L12.4862 21.1692L12.4989 21.1692H12.5011L12.5138 21.1692L12.5609 21.1692C12.6017 21.1691 12.6613 21.1688 12.7377 21.168C12.8904 21.1664 13.1108 21.1627 13.3846 21.1545C13.9316 21.1381 14.6941 21.1035 15.5572 21.0306C17.2645 20.8864 19.438 20.5873 21.1114 19.9479L21.1225 19.9436C21.4512 19.812 21.7444 19.605 21.9784 19.3393C22.2124 19.0736 22.3807 18.7567 22.4697 18.414L22.4704 18.4111C22.704 17.4972 23 15.8025 23 12.9567C23 10.1109 22.704 8.41615 22.4704 7.50223L22.4697 7.49941C22.3807 7.15671 22.2124 6.83973 21.9784 6.57403C21.7444 6.30833 21.4512 6.10135 21.1225 5.96977L21.1114 5.96546C19.438 5.32607 17.2645 5.02692 15.5572 4.88278C14.6941 4.8099 13.9316 4.7753 13.3846 4.75888C13.1108 4.75066 12.8904 4.74698 12.7377 4.74536C12.6613 4.74455 12.6017 4.74425 12.5609 4.74416L12.5138 4.74414L12.5011 4.74417H12.4989ZM12.4961 19.6692L12.5041 19.6692L12.5065 19.6692L12.5163 19.6692L12.5575 19.6692C12.5944 19.6691 12.6497 19.6689 12.7217 19.6681C12.8658 19.6666 13.0764 19.6631 13.3396 19.6552C13.8662 19.6394 14.6008 19.606 15.431 19.5359C17.1081 19.3943 19.1031 19.1081 20.5697 18.5491C20.6783 18.5048 20.7752 18.436 20.8527 18.3479C20.9311 18.2589 20.9875 18.1528 21.0175 18.0381C21.2152 17.2639 21.5 15.6965 21.5 12.9567C21.5 10.2169 21.2152 8.64942 21.0175 7.87527C20.9875 7.76055 20.9311 7.65444 20.8527 7.56544C20.7752 7.4774 20.6783 7.40854 20.5697 7.36423C19.1031 6.80522 17.1081 6.51905 15.431 6.37746C14.6008 6.30737 13.8662 6.27401 13.3396 6.2582C13.0764 6.2503 12.8658 6.24681 12.7217 6.24528C12.6497 6.24451 12.5944 6.24424 12.5575 6.24416L12.5163 6.24414L12.5065 6.24416L12.5043 6.24417L12.4959 6.24422L12.4935 6.24416L12.4837 6.24414L12.4425 6.24416C12.4056 6.24424 12.3503 6.24451 12.2783 6.24528C12.1342 6.24681 11.9236 6.2503 11.6604 6.2582C11.1338 6.27401 10.3992 6.30737 9.56896 6.37746C7.89192 6.51905 5.89693 6.80522 4.43029 7.36424C4.32171 7.40854 4.22484 7.4774 4.1473 7.56544C4.06892 7.65443 4.01247 7.76055 3.98248 7.87527C3.7848 8.64942 3.5 10.2169 3.5 12.9567C3.5 15.6965 3.7848 17.2639 3.98248 18.0381C4.01247 18.1528 4.06891 18.2589 4.1473 18.3479C4.22484 18.436 4.3217 18.5048 4.43028 18.5491C5.89692 19.1081 7.89192 19.3943 9.56896 19.5359C10.3992 19.606 11.1338 19.6394 11.6604 19.6552C11.9236 19.6631 12.1342 19.6666 12.2783 19.6681C12.3503 19.6689 12.4056 19.6691 12.4425 19.6692L12.4837 19.6692L12.4935 19.6692L12.4961 19.6692Z" fill="white"/>
</svg>
