<svg width="156" height="22" viewBox="0 0 156 22" fill="none" xmlns="http://www.w3.org/2000/svg">
<g id="Layer_x0020_1">
<g id="_2044627224672">
<path id="Vector" d="M1.436 8.64431L11.3151 2.40971V0.160156L21.1941 6.39475C22.1139 6.97503 22.6296 7.91136 22.6296 8.99878C22.6296 13.3153 22.6296 17.6324 22.6296 21.9489C17.4819 21.9489 12.3336 21.9489 7.18588 21.9489V16.4815L3.69944 18.6819C3.40103 18.8704 3.23287 19.1746 3.23287 19.5275V20.2861V21.9484H0C0 18.3168 0 14.6857 0 11.054C0 10.0488 0.570664 9.18989 1.43547 8.64378L1.436 8.64431ZM19.3972 9.75948L11.3151 4.65927V6.90883L19.3972 12.009V9.75948ZM3.23341 14.7417L11.3151 9.64204V6.90937L3.23341 12.0096V14.7422V14.7417Z" fill="#003399"/>
<g id="Group">
<path id="Vector_2" d="M103.491 9.59039C104.347 9.59039 105.119 9.77296 105.808 10.1386C106.498 10.5043 107.039 11.0525 107.432 11.7834C107.825 12.5142 108.022 13.4041 108.022 14.452V21.1345H106.16V14.721C106.16 13.5898 105.877 12.7245 105.312 12.1245C104.746 11.5245 103.974 11.2244 102.994 11.2244C102.002 11.2244 101.211 11.5346 100.625 12.1554C100.039 12.7763 99.7461 13.6795 99.7461 14.8657V21.1345H97.8633V5.82422H99.7461V11.4102C100.119 10.831 100.632 10.3826 101.287 10.0655C101.942 9.7484 102.677 9.58932 103.491 9.58932L103.491 9.59039ZM116.05 21.3213C114.988 21.3213 114.026 21.08 113.164 20.5969C112.302 20.1143 111.626 19.4278 111.136 18.5384C110.647 17.6485 110.402 16.6177 110.402 15.4454C110.402 14.287 110.653 13.2626 111.157 12.3732C111.661 11.4833 112.347 10.8011 113.216 10.3249C114.085 9.8493 115.057 9.61121 116.133 9.61121C117.208 9.61121 118.181 9.8493 119.05 10.3249C119.919 10.8006 120.605 11.4801 121.108 12.3626C121.612 13.2455 121.864 14.2726 121.864 15.4454C121.864 16.6177 121.605 17.6491 121.088 18.5384C120.571 19.4278 119.871 20.1143 118.988 20.5969C118.105 21.0795 117.126 21.3213 116.05 21.3213H116.05ZM116.05 19.6659C116.726 19.6659 117.36 19.5073 117.953 19.1902C118.546 18.8732 119.025 18.397 119.391 17.7628C119.757 17.1286 119.939 16.3561 119.939 15.4454C119.939 14.5353 119.76 13.7628 119.401 13.1281C119.042 12.4939 118.574 12.0209 117.995 11.7108C117.415 11.4006 116.788 11.2453 116.112 11.2453C115.422 11.2453 114.791 11.4006 114.219 11.7108C113.646 12.0209 113.188 12.4934 112.843 13.1281C112.498 13.7623 112.326 14.5347 112.326 15.4454C112.326 16.3695 112.494 17.1489 112.832 17.7831C113.17 18.4178 113.622 18.8902 114.187 19.2004C114.753 19.5105 115.373 19.6659 116.049 19.6659H116.05ZM137.98 9.59039C138.863 9.59039 139.649 9.77296 140.339 10.1386C141.028 10.5043 141.573 11.0525 141.973 11.7834C142.373 12.5142 142.573 13.4041 142.573 14.452V21.1345H140.711V14.721C140.711 13.5898 140.432 12.7245 139.873 12.1245C139.315 11.5245 138.559 11.2244 137.607 11.2244C136.628 11.2244 135.849 11.5383 135.27 12.1656C134.691 12.7934 134.401 13.6998 134.401 14.886V21.1339H132.539V14.7205C132.539 13.5893 132.26 12.724 131.701 12.1239C131.142 11.5239 130.387 11.2239 129.435 11.2239C128.455 11.2239 127.677 11.5378 127.097 12.165C126.518 12.7928 126.228 13.6993 126.228 14.8854V21.1334H124.346V9.79591H126.228V11.4305C126.601 10.8374 127.101 10.3821 127.728 10.065C128.356 9.74787 129.049 9.58879 129.808 9.58879C130.759 9.58879 131.601 9.80285 132.332 10.2299C133.062 10.6575 133.607 11.2853 133.966 12.1127C134.283 11.3131 134.808 10.6922 135.538 10.2507C136.269 9.80926 137.083 9.58879 137.98 9.58879L137.98 9.59039ZM156 15.0317C156 15.3904 155.979 15.7695 155.938 16.1698H146.876C146.945 17.2871 147.328 18.1594 148.025 18.7872C148.721 19.415 149.566 19.7283 150.559 19.7283C151.373 19.7283 152.052 19.5388 152.597 19.1593C153.142 18.7803 153.524 18.2731 153.745 17.6389H155.773C155.469 18.7285 154.862 19.6146 153.952 20.2974C153.042 20.9802 151.91 21.3218 150.559 21.3218C149.483 21.3218 148.521 21.0805 147.673 20.5974C146.825 20.1148 146.159 19.4283 145.676 18.539C145.194 17.6491 144.952 16.6183 144.952 15.446C144.952 14.2737 145.186 13.2461 145.655 12.3631C146.125 11.4801 146.783 10.8011 147.631 10.3255C148.479 9.84983 149.455 9.61174 150.559 9.61174C151.634 9.61174 152.586 9.84609 153.414 10.3153C154.241 10.7846 154.879 11.4289 155.327 12.2499C155.776 13.0704 156 13.9982 156 15.0328V15.0317ZM154.055 14.6388C154.055 13.9213 153.897 13.3042 153.58 12.787C153.263 12.2697 152.831 11.8768 152.287 11.6077C151.742 11.3387 151.138 11.2042 150.476 11.2042C149.525 11.2042 148.714 11.5074 148.045 12.1143C147.377 12.7213 146.994 13.5626 146.897 14.6383H154.056L154.055 14.6388Z" fill="white"/>
<path id="Vector_3" d="M27.3047 15.3622C27.3047 14.2032 27.5358 13.1761 27.9976 12.2793C28.4599 11.383 29.0871 10.6933 29.8804 10.2102C30.6732 9.72761 31.5598 9.48578 32.5389 9.48578C33.3941 9.48578 34.1425 9.65821 34.7836 10.0031C35.4248 10.3479 35.9389 10.7825 36.3248 11.3067V9.67209H39.2417V21.1339H36.3248V19.4583C35.9522 19.9964 35.4387 20.441 34.7836 20.7928C34.1286 21.1446 33.3733 21.3203 32.5181 21.3203C31.5524 21.3203 30.6732 21.072 29.8804 20.5756C29.0871 20.0791 28.4599 19.3792 27.9976 18.4755C27.5353 17.5722 27.3047 16.5345 27.3047 15.3616V15.3622ZM36.3253 15.4033C36.3253 14.6997 36.1871 14.0965 35.9116 13.5931C35.6356 13.0897 35.2636 12.7032 34.7943 12.4347C34.3256 12.1656 33.8217 12.0311 33.2841 12.0311C32.746 12.0311 32.2496 12.1619 31.7947 12.424C31.3394 12.6861 30.9705 13.0688 30.6881 13.5722C30.4052 14.0756 30.2637 14.6719 30.2637 15.3616C30.2637 16.0514 30.4052 16.6546 30.6881 17.1719C30.971 17.6891 31.3431 18.0858 31.8054 18.3612C32.2677 18.6372 32.7604 18.775 33.2846 18.775C33.8227 18.775 34.3261 18.6404 34.7949 18.3714C35.2636 18.1023 35.6362 17.7164 35.9122 17.213C36.1881 16.7096 36.3259 16.1063 36.3259 15.4027L36.3253 15.4033ZM56.3109 9.50713C57.7175 9.50713 58.8524 9.93793 59.714 10.8001C60.5762 11.6622 61.007 12.8655 61.007 14.4104V21.1345H58.1104V14.8038C58.1104 13.9075 57.883 13.221 57.4276 12.7453C56.9723 12.2697 56.352 12.0316 55.5656 12.0316C54.7793 12.0316 54.1553 12.2697 53.6935 12.7453C53.2312 13.2215 53.0006 13.9075 53.0006 14.8038V21.1345H50.104V14.8038C50.104 13.9075 49.8766 13.221 49.4213 12.7453C48.9659 12.2697 48.3456 12.0316 47.5593 12.0316C46.7596 12.0316 46.1281 12.2697 45.6663 12.7453C45.204 13.2215 44.9734 13.9075 44.9734 14.8038V21.1345H42.0768V9.67262H44.9734V11.059C45.346 10.5764 45.8254 10.1968 46.4115 9.92085C46.9977 9.64486 47.6425 9.50713 48.3461 9.50713C49.2424 9.50713 50.0426 9.69664 50.7462 10.0762C51.4498 10.4552 51.9943 10.9971 52.3808 11.7001C52.7534 11.0382 53.2947 10.507 54.0047 10.1072C54.7152 9.70732 55.484 9.50713 56.3114 9.50713H56.3109ZM63.0142 15.3622C63.0142 14.2032 63.2453 13.1761 63.7071 12.2793C64.1694 11.383 64.7966 10.6933 65.5899 10.2102C66.3826 9.72761 67.2693 9.48578 68.2484 9.48578C69.1036 9.48578 69.852 9.65821 70.4931 10.0031C71.1342 10.3479 71.6483 10.7825 72.0343 11.3067V9.67209H74.9511V21.1339H72.0343V19.4583C71.6617 19.9964 71.1481 20.441 70.4931 20.7928C69.8381 21.1446 69.0827 21.3203 68.2275 21.3203C67.2618 21.3203 66.3826 21.072 65.5899 20.5756C64.7966 20.0791 64.1694 19.3792 63.7071 18.4755C63.2448 17.5722 63.0142 16.5345 63.0142 15.3616V15.3622ZM72.0348 15.4033C72.0348 14.6997 71.8966 14.0965 71.6211 13.5931C71.3451 13.0897 70.973 12.7032 70.5038 12.4347C70.0351 12.1656 69.5312 12.0311 68.9936 12.0311C68.4555 12.0311 67.959 12.1619 67.5042 12.424C67.0488 12.6861 66.68 13.0688 66.3976 13.5722C66.1146 14.0756 65.9732 14.6719 65.9732 15.3616C65.9732 16.0514 66.1146 16.6546 66.3976 17.1719C66.6805 17.6891 67.0526 18.0858 67.5149 18.3612C67.9772 18.6372 68.4699 18.775 68.9941 18.775C69.5322 18.775 70.0356 18.6404 70.5043 18.3714C70.973 18.1023 71.3456 17.7164 71.6216 17.213C71.8976 16.7096 72.0354 16.1063 72.0354 15.4027L72.0348 15.4033ZM84.1378 9.50713C85.5033 9.50713 86.6068 9.93793 87.4481 10.8001C88.2894 11.6622 88.7101 12.8655 88.7101 14.4104V21.1345H85.8135V14.8038C85.8135 13.8936 85.5861 13.1932 85.1307 12.7037C84.6754 12.2142 84.0551 11.9692 83.2687 11.9692C82.4685 11.9692 81.8375 12.2142 81.3758 12.7037C80.9135 13.1932 80.6829 13.8931 80.6829 14.8038V21.1345H77.7863V9.67262H80.6829V11.1001C81.0688 10.6036 81.5621 10.2139 82.1621 9.93099C82.7621 9.64806 83.4209 9.50713 84.1378 9.50713ZM92.9305 8.30708C92.4202 8.30708 91.9963 8.14533 91.6584 7.82077C91.3205 7.49673 91.1518 7.09316 91.1518 6.61057C91.1518 6.12799 91.3205 5.72442 91.6584 5.40038C91.9963 5.07635 92.4207 4.91406 92.9305 4.91406C93.4408 4.91406 93.8652 5.07635 94.2032 5.40038C94.5411 5.72442 94.7098 6.12799 94.7098 6.61057C94.7098 7.09316 94.5411 7.49673 94.2032 7.82077C93.8652 8.1448 93.4408 8.30708 92.9305 8.30708ZM94.358 9.67262V21.1345H91.4614V9.67262H94.358Z" fill="white"/>
</g>
</g>
</g>
</svg>
