<svg width="237" height="34" viewBox="0 0 237 34" fill="none" xmlns="http://www.w3.org/2000/svg">
<path d="M2.17525 13.2268L17.14 3.78263V0.375L32.1048 9.81916C33.4981 10.6982 34.2793 12.1165 34.2793 13.7637C34.2793 20.3024 34.2793 26.8419 34.2793 33.3807C26.4815 33.3807 18.6829 33.3807 10.8852 33.3807V25.0985L5.60391 28.4317C5.15188 28.7172 4.89715 29.1781 4.89715 29.7126V30.8617V33.3798H0C0 27.8786 0 22.3782 0 16.877C0 15.3543 0.864441 14.0532 2.17445 13.226L2.17525 13.2268ZM29.3829 14.9161L17.14 7.19026V10.5979L29.3829 18.3237V14.9161ZM4.89796 22.4631L17.14 14.7382V10.5987L4.89796 18.3245V22.4639V22.4631Z" fill="white"/>
<path d="M156.772 14.6601C158.067 14.6601 159.237 14.9366 160.281 15.4905C161.326 16.0445 162.146 16.8749 162.741 17.982C163.336 19.089 163.635 20.437 163.635 22.0244V32.147H160.814V22.432C160.814 20.7184 160.385 19.4076 159.529 18.4987C158.673 17.5898 157.503 17.1353 156.019 17.1353C154.515 17.1353 153.318 17.6052 152.43 18.5456C151.542 19.4861 151.098 20.8543 151.098 22.6511V32.147H148.246V8.95508H151.098V17.4167C151.663 16.5394 152.441 15.8601 153.433 15.3798C154.425 14.8994 155.538 14.6585 156.771 14.6585L156.772 14.6601ZM175.795 32.43C174.187 32.43 172.729 32.0645 171.423 31.3327C170.118 30.6017 169.094 29.5618 168.352 28.2146C167.611 26.8666 167.24 25.3051 167.24 23.5293C167.24 21.7745 167.62 20.2227 168.384 18.8755C169.146 17.5275 170.185 16.4941 171.502 15.7728C172.818 15.0523 174.291 14.6916 175.92 14.6916C177.55 14.6916 179.023 15.0523 180.34 15.7728C181.656 16.4933 182.695 17.5227 183.458 18.8594C184.22 20.1969 184.602 21.7527 184.602 23.5293C184.602 25.3051 184.211 26.8674 183.427 28.2146C182.643 29.5618 181.583 30.6017 180.246 31.3327C178.908 32.0637 177.425 32.43 175.796 32.43H175.795ZM175.795 29.9224C176.819 29.9224 177.78 29.6823 178.678 29.2019C179.576 28.7216 180.302 28.0003 180.856 27.0396C181.41 26.0789 181.687 24.9088 181.687 23.5293C181.687 22.1505 181.415 20.9804 180.872 20.019C180.328 19.0583 179.618 18.3418 178.741 17.872C177.864 17.4022 176.913 17.1669 175.889 17.1669C174.844 17.1669 173.888 17.4022 173.021 17.872C172.155 18.3418 171.46 19.0575 170.937 20.019C170.415 20.9796 170.154 22.1497 170.154 23.5293C170.154 24.9291 170.409 26.1097 170.921 27.0703C171.433 28.0318 172.117 28.7475 172.974 29.2173C173.83 29.6871 174.77 29.9224 175.794 29.9224H175.795ZM209.015 14.6601C210.352 14.6601 211.543 14.9366 212.588 15.4905C213.632 16.0445 214.458 16.8749 215.064 17.982C215.669 19.089 215.973 20.437 215.973 22.0244V32.147H213.152V22.432C213.152 20.7184 212.729 19.4076 211.882 18.4987C211.037 17.5898 209.892 17.1353 208.451 17.1353C206.967 17.1353 205.787 17.6108 204.909 18.561C204.032 19.5119 203.593 20.885 203.593 22.6818V32.1462H200.772V22.4311C200.772 20.7176 200.35 19.4068 199.503 18.4979C198.657 17.589 197.513 17.1345 196.071 17.1345C194.587 17.1345 193.407 17.61 192.53 18.5602C191.653 19.5111 191.213 20.8842 191.213 22.681V32.1454H188.361V14.9714H191.213V17.4475C191.778 16.5491 192.535 15.8593 193.486 15.379C194.437 14.8986 195.486 14.6576 196.635 14.6576C198.077 14.6576 199.352 14.9819 200.459 15.6288C201.566 16.2765 202.391 17.2275 202.935 18.4809C203.415 17.2696 204.209 16.3291 205.316 15.6604C206.423 14.9916 207.656 14.6576 209.014 14.6576L209.015 14.6601ZM236.312 22.9026C236.312 23.446 236.28 24.0201 236.218 24.6266H222.491C222.595 26.3191 223.175 27.6404 224.23 28.5914C225.286 29.5424 226.565 30.017 228.07 30.017C229.302 30.017 230.332 29.73 231.156 29.155C231.982 28.5809 232.561 27.8127 232.896 26.852H235.967C235.508 28.5025 234.588 29.8448 233.209 30.8791C231.83 31.9133 230.117 32.4308 228.069 32.4308C226.44 32.4308 224.982 32.0653 223.698 31.3335C222.413 30.6025 221.404 29.5626 220.673 28.2154C219.942 26.8674 219.576 25.3059 219.576 23.5301C219.576 21.7543 219.931 20.1977 220.642 18.8602C221.352 17.5227 222.35 16.4941 223.634 15.7736C224.919 15.0531 226.398 14.6924 228.069 14.6924C229.698 14.6924 231.14 15.0474 232.394 15.7582C233.647 16.469 234.613 17.445 235.293 18.6887C235.972 19.9316 236.312 21.337 236.312 22.9042V22.9026ZM233.366 22.3074C233.366 21.2206 233.126 20.2858 232.645 19.5022C232.165 18.7187 231.511 18.1235 230.687 17.7159C229.861 17.3084 228.947 17.1046 227.945 17.1046C226.503 17.1046 225.275 17.5639 224.262 18.4833C223.249 19.4028 222.669 20.6772 222.523 22.3066H233.367L233.366 22.3074Z" fill="white"/>
<path d="M41.3633 23.4049C41.3633 21.6494 41.7134 20.0935 42.4129 18.735C43.1132 17.3773 44.0633 16.3325 45.265 15.6007C46.4658 14.8697 47.809 14.5034 49.292 14.5034C50.5875 14.5034 51.7212 14.7646 52.6924 15.2869C53.6636 15.8093 54.4423 16.4676 55.027 17.2616V14.7856H59.4454V32.148H55.027V29.6097C54.4625 30.4248 53.6846 31.0984 52.6924 31.6313C51.7002 32.1642 50.556 32.4302 49.2605 32.4302C47.7977 32.4302 46.4658 32.0542 45.265 31.3022C44.0633 30.5501 43.1132 29.49 42.4129 28.1209C41.7126 26.7527 41.3633 25.1807 41.3633 23.4041V23.4049ZM55.0278 23.4672C55.0278 22.4014 54.8183 21.4876 54.4011 20.7251C53.983 19.9625 53.4194 19.3771 52.7086 18.9703C51.9986 18.5628 51.2352 18.359 50.4209 18.359C49.6058 18.359 48.8538 18.5571 48.1648 18.9541C47.475 19.3512 46.9162 19.931 46.4885 20.6935C46.0599 21.4561 45.8456 22.3593 45.8456 23.4041C45.8456 24.4489 46.0599 25.3627 46.4885 26.1462C46.9171 26.9298 47.4807 27.5306 48.181 27.9479C48.8813 28.366 49.6276 28.5746 50.4217 28.5746C51.2368 28.5746 51.9994 28.3708 52.7094 27.9633C53.4194 27.5557 53.9838 26.9711 54.4019 26.2085C54.8199 25.4459 55.0286 24.5322 55.0286 23.4664L55.0278 23.4672ZM85.3018 14.5357C87.4326 14.5357 89.1518 15.1883 90.4569 16.4942C91.7629 17.8002 92.4155 19.6229 92.4155 21.9631V32.1488H88.0278V22.5591C88.0278 21.2014 87.6833 20.1615 86.9935 19.4409C86.3037 18.7204 85.3641 18.3598 84.173 18.3598C82.9818 18.3598 82.0365 18.7204 81.337 19.4409C80.6367 20.1623 80.2874 21.2014 80.2874 22.5591V32.1488H75.8997V22.5591C75.8997 21.2014 75.5552 20.1615 74.8654 19.4409C74.1757 18.7204 73.236 18.3598 72.0449 18.3598C70.8335 18.3598 69.8769 18.7204 69.1774 19.4409C68.4772 20.1623 68.1278 21.2014 68.1278 22.5591V32.1488H63.7401V14.7864H68.1278V16.8864C68.6922 16.1554 69.4184 15.5805 70.3063 15.1624C71.1942 14.7443 72.171 14.5357 73.2368 14.5357C74.5946 14.5357 75.8067 14.8228 76.8725 15.3977C77.9383 15.9719 78.7631 16.7926 79.3486 17.8576C79.913 16.8549 80.733 16.0503 81.8085 15.4446C82.8848 14.8389 84.0492 14.5357 85.3026 14.5357H85.3018ZM95.456 23.4049C95.456 21.6494 95.8061 20.0935 96.5056 18.735C97.2059 17.3773 98.156 16.3325 99.3577 15.6007C100.559 14.8697 101.902 14.5034 103.385 14.5034C104.68 14.5034 105.814 14.7646 106.785 15.2869C107.756 15.8093 108.535 16.4676 109.12 17.2616V14.7856H113.538V32.148H109.12V29.6097C108.555 30.4248 107.777 31.0984 106.785 31.6313C105.793 32.1642 104.649 32.4302 103.353 32.4302C101.89 32.4302 100.559 32.0542 99.3577 31.3022C98.156 30.5501 97.2059 29.49 96.5056 28.1209C95.8053 26.7527 95.456 25.1807 95.456 23.4041V23.4049ZM109.12 23.4672C109.12 22.4014 108.911 21.4876 108.494 20.7251C108.076 19.9625 107.512 19.3771 106.801 18.9703C106.091 18.5628 105.328 18.359 104.514 18.359C103.698 18.359 102.946 18.5571 102.257 18.9541C101.568 19.3512 101.009 19.931 100.581 20.6935C100.153 21.4561 99.9383 22.3593 99.9383 23.4041C99.9383 24.4489 100.153 25.3627 100.581 26.1462C101.01 26.9298 101.573 27.5306 102.274 27.9479C102.974 28.366 103.72 28.5746 104.514 28.5746C105.33 28.5746 106.092 28.3708 106.802 27.9633C107.512 27.5557 108.076 26.9711 108.495 26.2085C108.913 25.4459 109.121 24.5322 109.121 23.4664L109.12 23.4672ZM127.454 14.5357C129.523 14.5357 131.194 15.1883 132.468 16.4942C133.743 17.8002 134.38 19.6229 134.38 21.9631V32.1488H129.992V22.5591C129.992 21.1803 129.648 20.1194 128.958 19.3779C128.268 18.6363 127.329 18.2652 126.138 18.2652C124.925 18.2652 123.97 18.6363 123.27 19.3779C122.57 20.1194 122.221 21.1795 122.221 22.5591V32.1488H117.833V14.7864H122.221V16.9487C122.805 16.1967 123.552 15.6064 124.461 15.1778C125.37 14.7492 126.368 14.5357 127.454 14.5357ZM140.773 12.7179C140 12.7179 139.358 12.4729 138.846 11.9812C138.334 11.4903 138.079 10.879 138.079 10.148C138.079 9.41698 138.334 8.80565 138.846 8.3148C139.358 7.82395 140.001 7.57812 140.773 7.57812C141.546 7.57812 142.189 7.82395 142.701 8.3148C143.213 8.80565 143.468 9.41698 143.468 10.148C143.468 10.879 143.213 11.4903 142.701 11.9812C142.189 12.472 141.546 12.7179 140.773 12.7179ZM142.936 14.7864V32.1488H138.548V14.7864H142.936Z" fill="white"/>
</svg>
