<svg width="316" height="279" viewBox="0 0 316 279" fill="none" xmlns="http://www.w3.org/2000/svg">
<path d="M71.5355 56.8245L10.2084 0.375H-0.000839233V31.1373V40.0186C-0.000839233 50.9799 3.56385 60.402 9.909 66.2466L71.5355 122.987C77.8949 128.832 81.4453 138.254 81.4453 149.215C81.4453 130.121 81.4453 111.028 81.4453 91.9546V83.0733C81.4453 72.112 77.8806 62.6899 71.5355 56.8453V56.8245Z" fill="white" fill-opacity="0.1"/>
<path d="M91.3563 120.096L152.983 63.355C159.342 57.5103 162.893 48.0882 162.893 37.127C162.893 56.2208 162.893 75.3146 162.893 94.3877V103.269C162.893 114.23 159.328 123.652 152.983 129.497L91.3563 186.238C84.9969 192.082 81.4464 201.504 81.4464 212.466C81.4464 193.372 81.4464 174.278 81.4464 155.205V146.324C81.4464 135.362 85.0111 125.94 91.3563 120.096Z" fill="white" fill-opacity="0.1"/>
<path d="M71.5355 186.238L9.909 129.498C3.54959 123.653 -0.000839233 114.231 -0.000839233 103.27C-0.000839233 122.363 -0.000839233 141.457 -0.000839233 160.53V169.412C-0.000839233 180.373 3.56385 189.795 9.909 195.64L71.5355 252.38C77.8949 258.225 81.4453 267.647 81.4453 278.608C81.4453 259.514 81.4453 240.421 81.4453 221.348V212.466C81.4453 201.505 77.8806 192.083 71.5355 186.238Z" fill="white" fill-opacity="0.1"/>
<path d="M234.442 56.8245L173.115 0.375H162.905V31.1373V40.0186C162.905 50.9799 166.47 60.402 172.815 66.2466L234.442 122.987C240.801 128.832 244.352 138.254 244.352 149.215C244.352 130.121 244.352 111.028 244.352 91.9546V83.0733C244.352 72.112 240.787 62.6899 234.442 56.8453V56.8245Z" fill="white" fill-opacity="0.1"/>
<path d="M315.887 0.375L254.26 57.1157C247.901 62.9603 244.35 72.3825 244.35 83.3437C244.35 64.2499 244.35 45.1561 244.35 26.083V17.2017C244.35 10.9827 245.505 5.24205 247.658 0.395799H315.887V0.375Z" fill="white" fill-opacity="0.1"/>
<path d="M152.795 0.375L91.1685 57.1157C84.8091 62.9603 81.2586 72.3825 81.2586 83.3437C81.2586 64.2499 81.2586 45.1561 81.2586 26.083V17.2017C81.2586 10.9827 82.4136 5.24205 84.5667 0.395799H152.795V0.375Z" fill="white" fill-opacity="0.1"/>
</svg>
