<svg width="30" height="30" viewBox="0 0 30 30" fill="none" xmlns="http://www.w3.org/2000/svg">
<rect x="0.259115" y="0.259115" width="29.4818" height="29.4818" rx="14.7409" fill="#F4FBED"/>
<rect x="0.259115" y="0.259115" width="29.4818" height="29.4818" rx="14.7409" stroke="#DEF3C7" stroke-width="0.518229"/>
<path d="M20.285 12.3661L16.3214 8.89137C15.958 8.56639 15.4877 8.38672 15.0002 8.38672C14.5127 8.38672 14.0423 8.56639 13.679 8.89137L9.71535 12.3661C9.50552 12.5538 9.33808 12.784 9.22418 13.0414C9.11027 13.2989 9.05251 13.5776 9.05475 13.8591V19.6328C9.05475 20.1584 9.26355 20.6625 9.63521 21.0341C10.0069 21.4058 10.5109 21.6146 11.0366 21.6146H18.9638C19.4894 21.6146 19.9935 21.4058 20.3651 21.0341C20.7368 20.6625 20.9456 20.1584 20.9456 19.6328V13.8525C20.9469 13.5721 20.8887 13.2946 20.7748 13.0384C20.6609 12.7822 20.494 12.5531 20.285 12.3661ZM16.3214 20.2934H13.679V16.9904C13.679 16.8152 13.7486 16.6471 13.8725 16.5232C13.9963 16.3994 14.1644 16.3298 14.3396 16.3298H15.6608C15.836 16.3298 16.004 16.3994 16.1279 16.5232C16.2518 16.6471 16.3214 16.8152 16.3214 16.9904V20.2934ZM19.6244 19.6328C19.6244 19.808 19.5548 19.976 19.4309 20.0999C19.307 20.2238 19.139 20.2934 18.9638 20.2934H17.6426V16.9904C17.6426 16.4648 17.4338 15.9607 17.0621 15.589C16.6905 15.2174 16.1864 15.0086 15.6608 15.0086H14.3396C13.814 15.0086 13.3099 15.2174 12.9382 15.589C12.5666 15.9607 12.3578 16.4648 12.3578 16.9904V20.2934H11.0366C10.8614 20.2934 10.6933 20.2238 10.5694 20.0999C10.4456 19.976 10.376 19.808 10.376 19.6328V13.8525C10.3761 13.7587 10.3962 13.666 10.4349 13.5806C10.4736 13.4952 10.5301 13.419 10.6006 13.357L14.5642 9.88888C14.6847 9.78298 14.8397 9.72457 15.0002 9.72457C15.1606 9.72457 15.3156 9.78298 15.4362 9.88888L19.3998 13.357C19.4703 13.419 19.5267 13.4952 19.5655 13.5806C19.6042 13.666 19.6243 13.7587 19.6244 13.8525V19.6328Z" fill="#81BA0F"/>
</svg>
