<svg width="24" height="25" viewBox="0 0 24 25" fill="none" xmlns="http://www.w3.org/2000/svg">
<path fill-rule="evenodd" clip-rule="evenodd" d="M12 9.38086C10.3431 9.38086 9 10.724 9 12.3809C9 14.0377 10.3431 15.3809 12 15.3809C13.6569 15.3809 15 14.0377 15 12.3809C15 10.724 13.6569 9.38086 12 9.38086ZM7.5 12.3809C7.5 9.89558 9.51472 7.88086 12 7.88086C14.4853 7.88086 16.5 9.89558 16.5 12.3809C16.5 14.8661 14.4853 16.8809 12 16.8809C9.51472 16.8809 7.5 14.8661 7.5 12.3809Z" fill="white"/>
<path fill-rule="evenodd" clip-rule="evenodd" d="M7.875 4.50586C5.80393 4.50586 4.125 6.18479 4.125 8.25586V16.5059C4.125 18.5769 5.80393 20.2559 7.875 20.2559H16.125C18.1961 20.2559 19.875 18.5769 19.875 16.5059V8.25586C19.875 6.18479 18.1961 4.50586 16.125 4.50586H7.875ZM2.625 8.25586C2.625 5.35636 4.97551 3.00586 7.875 3.00586H16.125C19.0245 3.00586 21.375 5.35636 21.375 8.25586V16.5059C21.375 19.4054 19.0245 21.7559 16.125 21.7559H7.875C4.97551 21.7559 2.625 19.4054 2.625 16.5059V8.25586Z" fill="white"/>
<path d="M16.875 8.63086C17.4963 8.63086 18 8.12718 18 7.50586C18 6.88454 17.4963 6.38086 16.875 6.38086C16.2537 6.38086 15.75 6.88454 15.75 7.50586C15.75 8.12718 16.2537 8.63086 16.875 8.63086Z" fill="white"/>
</svg>
