<svg width="32" height="32" viewBox="0 0 32 32" fill="none" xmlns="http://www.w3.org/2000/svg">
<g id="Left">
<path id="Vector" d="M3.99922 15.0002H25.5892L20.2892 9.71019C20.1009 9.52188 19.9951 9.26649 19.9951 9.00019C19.9951 8.73388 20.1009 8.47849 20.2892 8.29019C20.4775 8.10188 20.7329 7.99609 20.9992 7.99609C21.2655 7.99609 21.5209 8.10188 21.7092 8.29019L28.7092 15.2902C28.7899 15.378 28.8543 15.4797 28.8992 15.5902C28.9048 15.6233 28.9048 15.6571 28.8992 15.6902C28.9265 15.771 28.9433 15.8551 28.9492 15.9402V16.0002C28.9488 16.1064 28.9284 16.2115 28.8892 16.3102C28.8477 16.4224 28.783 16.5247 28.6992 16.6102L21.6992 23.6102C21.6063 23.7039 21.4957 23.7783 21.3738 23.8291C21.2519 23.8798 21.1212 23.906 20.9892 23.906C20.8572 23.906 20.7265 23.8798 20.6046 23.8291C20.4828 23.7783 20.3722 23.7039 20.2792 23.6102C20.1855 23.5172 20.1111 23.4066 20.0603 23.2848C20.0096 23.1629 19.9834 23.0322 19.9834 22.9002C19.9834 22.7682 20.0096 22.6375 20.0603 22.5156C20.1111 22.3937 20.1855 22.2831 20.2792 22.1902L25.5892 17.0002H3.99922C3.734 17.0002 3.47965 16.8948 3.29211 16.7073C3.10457 16.5198 2.99922 16.2654 2.99922 16.0002C2.99922 15.735 3.10457 15.4806 3.29211 15.2931C3.47965 15.1055 3.734 15.0002 3.99922 15.0002Z" fill="#2F6DEB"/>
</g>
</svg>
