<svg width="50" height="51" viewBox="0 0 50 51" fill="none" xmlns="http://www.w3.org/2000/svg">
<g opacity="0.25">
<circle cx="25" cy="25.0586" r="24.5" fill="white" fill-opacity="0.1" stroke="#EAF1FF"/>
<path d="M35 26.0586C35.5523 26.0586 36 25.6109 36 25.0586C36 24.5063 35.5523 24.0586 35 24.0586L35 26.0586ZM14.2929 24.3515C13.9024 24.742 13.9024 25.3752 14.2929 25.7657L20.6569 32.1297C21.0474 32.5202 21.6805 32.5202 22.0711 32.1297C22.4616 31.7391 22.4616 31.106 22.0711 30.7154L16.4142 25.0586L22.0711 19.4017C22.4616 19.0112 22.4616 18.3781 22.0711 17.9875C21.6805 17.597 21.0474 17.597 20.6569 17.9875L14.2929 24.3515ZM35 24.0586L15 24.0586L15 26.0586L35 26.0586L35 24.0586Z" fill="#EAF1FF"/>
</g>
</svg>
