<svg width="32" height="32" viewBox="0 0 32 32" fill="none" xmlns="http://www.w3.org/2000/svg">
<g id="Left">
<path id="Vector" d="M8.78241 15.4266H21.7952L18.6007 12.2382C18.4872 12.1247 18.4235 11.9708 18.4235 11.8103C18.4235 11.6498 18.4872 11.4958 18.6007 11.3823C18.7142 11.2688 18.8682 11.2051 19.0287 11.2051C19.1892 11.2051 19.3431 11.2688 19.4566 11.3823L23.6757 15.6014C23.7243 15.6543 23.7631 15.7156 23.7902 15.7822C23.7935 15.8022 23.7935 15.8225 23.7902 15.8425C23.8066 15.8912 23.8167 15.9418 23.8203 15.9932V16.0293C23.82 16.0933 23.8078 16.1567 23.7841 16.2162C23.7591 16.2838 23.7201 16.3454 23.6696 16.397L19.4506 20.616C19.3946 20.6725 19.3279 20.7174 19.2544 20.748C19.181 20.7786 19.1022 20.7943 19.0226 20.7943C18.9431 20.7943 18.8643 20.7786 18.7909 20.748C18.7174 20.7174 18.6507 20.6725 18.5947 20.616C18.5382 20.56 18.4934 20.4933 18.4628 20.4199C18.4322 20.3464 18.4164 20.2677 18.4164 20.1881C18.4164 20.1085 18.4322 20.0297 18.4628 19.9563C18.4934 19.8829 18.5382 19.8162 18.5947 19.7602L21.7952 16.632H8.78241C8.62256 16.632 8.46925 16.5685 8.35622 16.4555C8.24319 16.3425 8.17969 16.1892 8.17969 16.0293C8.17969 15.8695 8.24319 15.7162 8.35622 15.6031C8.46925 15.4901 8.62256 15.4266 8.78241 15.4266Z" fill="white"/>
</g>
</svg>
