<svg width="50" height="51" viewBox="0 0 50 51" fill="none" xmlns="http://www.w3.org/2000/svg">
<circle cx="25" cy="25.0586" r="24.5" fill="white" fill-opacity="0.1" stroke="#EAF1FF"/>
<path d="M15 24.0586C14.4477 24.0586 14 24.5063 14 25.0586C14 25.6109 14.4477 26.0586 15 26.0586V24.0586ZM35.7071 25.7657C36.0976 25.3752 36.0976 24.742 35.7071 24.3515L29.3431 17.9875C28.9526 17.597 28.3195 17.597 27.9289 17.9875C27.5384 18.3781 27.5384 19.0112 27.9289 19.4017L33.5858 25.0586L27.9289 30.7154C27.5384 31.106 27.5384 31.7391 27.9289 32.1297C28.3195 32.5202 28.9526 32.5202 29.3431 32.1297L35.7071 25.7657ZM15 26.0586H35V24.0586H15V26.0586Z" fill="#EAF1FF"/>
</svg>
