<svg width="36" height="36" viewBox="0 0 36 36" fill="none" xmlns="http://www.w3.org/2000/svg">
<rect x="0.259115" y="0.259115" width="35.4818" height="35.4818" rx="17.7409" fill="#F4FBED"/>
<rect x="0.259115" y="0.259115" width="35.4818" height="35.4818" rx="17.7409" stroke="#DEF3C7" stroke-width="0.518229"/>
<path fill-rule="evenodd" clip-rule="evenodd" d="M15.6179 9.68662C15.9139 8.99662 16.6779 8.37062 17.6419 8.55662C19.1159 8.83962 20.6809 9.95762 20.7909 11.7706L20.7969 11.9746V14.4746H23.2019C23.7713 14.4746 24.3341 14.5961 24.8527 14.8311C25.3714 15.0661 25.8339 15.409 26.2093 15.8371C26.5848 16.2652 26.8645 16.7685 27.0298 17.3134C27.1951 17.8582 27.2422 18.4321 27.1679 18.9966L27.1379 19.1906L26.2279 24.1906C26.0665 25.0787 25.6096 25.886 24.9313 26.4815C24.2531 27.077 23.3933 27.4256 22.4919 27.4706L22.2929 27.4746H11.7969C11.0317 27.4747 10.2954 27.1823 9.73861 26.6573C9.18187 26.1324 8.84677 25.4145 8.80188 24.6506L8.79688 24.4746V18.4746C8.79683 17.7094 9.0892 16.9731 9.61416 16.4164C10.1391 15.8596 10.857 15.5245 11.6209 15.4796L11.7969 15.4746H13.1369L15.6179 9.68662ZM12.7969 17.4746H11.7969C11.5317 17.4746 11.2773 17.58 11.0898 17.7675C10.9022 17.955 10.7969 18.2094 10.7969 18.4746V24.4746C10.7969 24.7398 10.9022 24.9942 11.0898 25.1817C11.2773 25.3693 11.5317 25.4746 11.7969 25.4746H12.7969V17.4746ZM17.4219 10.5546L14.8779 16.4916C14.8423 16.5743 14.8181 16.6614 14.8059 16.7506L14.7969 16.8846V25.4746H22.2929C22.7338 25.4747 23.1624 25.329 23.512 25.0602C23.8616 24.7915 24.1126 24.4147 24.2259 23.9886L24.2609 23.8326L25.1709 18.8326C25.2212 18.5566 25.2128 18.2731 25.1464 18.0005C25.0799 17.728 24.9569 17.4724 24.7853 17.2505C24.6136 17.0286 24.3972 16.8453 24.1501 16.7125C23.903 16.5797 23.6307 16.5003 23.3509 16.4796L23.2019 16.4746H20.7969C20.2923 16.4748 19.8063 16.2842 19.4363 15.9411C19.0663 15.598 18.8397 15.1278 18.8019 14.6246L18.7969 14.4746V11.9746C18.7969 11.4216 18.3629 10.8586 17.5919 10.6046L17.4219 10.5546Z" fill="#6C9B0C"/>
</svg>
