<svg width="93" height="49" viewBox="0 0 93 49" fill="none" xmlns="http://www.w3.org/2000/svg">
<path d="M10.1445 0H8.45388C3.78528 0 0.000630379 3.78465 0.000630379 8.45325H10.1445V0Z" fill="#003399"/>
<path d="M0 8.45312H84.813C89.2313 8.45312 92.813 12.0348 92.813 16.4531V40.4531C92.813 44.8714 89.2313 48.4531 84.813 48.4531H8C3.58172 48.4531 0 44.8714 0 40.4531V8.45312Z" fill="#2F6DEB"/>
<path d="M26.3996 28.2931C27.1863 28.4398 27.8329 28.8331 28.3396 29.4731C28.8463 30.1131 29.0996 30.8465 29.0996 31.6731C29.0996 32.4198 28.9129 33.0798 28.5396 33.6531C28.1796 34.2131 27.6529 34.6531 26.9596 34.9731C26.2663 35.2931 25.4463 35.4531 24.4996 35.4531H18.4796V21.4931H24.2396C25.1863 21.4931 25.9996 21.6465 26.6796 21.9531C27.3729 22.2598 27.8929 22.6865 28.2396 23.2331C28.5996 23.7798 28.7796 24.3998 28.7796 25.0931C28.7796 25.9065 28.5596 26.5865 28.1196 27.1331C27.6929 27.6798 27.1196 28.0665 26.3996 28.2931ZM21.2796 27.2531H23.8396C24.5063 27.2531 25.0196 27.1065 25.3796 26.8131C25.7396 26.5065 25.9196 26.0731 25.9196 25.5131C25.9196 24.9531 25.7396 24.5198 25.3796 24.2131C25.0196 23.9065 24.5063 23.7531 23.8396 23.7531H21.2796V27.2531ZM24.0996 33.1731C24.7796 33.1731 25.3063 33.0131 25.6796 32.6931C26.0663 32.3731 26.2596 31.9198 26.2596 31.3331C26.2596 30.7331 26.0596 30.2665 25.6596 29.9331C25.2596 29.5865 24.7196 29.4131 24.0396 29.4131H21.2796V33.1731H24.0996ZM41.7912 24.3731V35.4531H38.9712V34.0531C38.6112 34.5331 38.1378 34.9131 37.5512 35.1931C36.9778 35.4598 36.3512 35.5931 35.6712 35.5931C34.8045 35.5931 34.0378 35.4131 33.3712 35.0531C32.7045 34.6798 32.1778 34.1398 31.7912 33.4331C31.4178 32.7131 31.2312 31.8598 31.2312 30.8731V24.3731H34.0312V30.4731C34.0312 31.3531 34.2512 32.0331 34.6912 32.5131C35.1312 32.9798 35.7312 33.2131 36.4912 33.2131C37.2645 33.2131 37.8712 32.9798 38.3112 32.5131C38.7512 32.0331 38.9712 31.3531 38.9712 30.4731V24.3731H41.7912ZM55.1538 24.3731L48.2938 40.6931H45.3138L47.7138 35.1731L43.2738 24.3731H46.4138L49.2738 32.1131L52.1738 24.3731H55.1538ZM66.9632 29.6731C66.9632 30.0731 66.9365 30.4331 66.8832 30.7531H58.7832C58.8499 31.5531 59.1299 32.1798 59.6232 32.6331C60.1165 33.0865 60.7232 33.3131 61.4432 33.3131C62.4832 33.3131 63.2232 32.8665 63.6632 31.9731H66.6832C66.3632 33.0398 65.7499 33.9198 64.8432 34.6131C63.9365 35.2931 62.8232 35.6331 61.5032 35.6331C60.4365 35.6331 59.4765 35.3998 58.6232 34.9331C57.7832 34.4531 57.1232 33.7798 56.6432 32.9131C56.1765 32.0465 55.9432 31.0465 55.9432 29.9131C55.9432 28.7665 56.1765 27.7598 56.6432 26.8931C57.1099 26.0265 57.7632 25.3598 58.6032 24.8931C59.4432 24.4265 60.4099 24.1931 61.5032 24.1931C62.5565 24.1931 63.4965 24.4198 64.3232 24.8731C65.1632 25.3265 65.8099 25.9731 66.2632 26.8131C66.7299 27.6398 66.9632 28.5931 66.9632 29.6731ZM64.0632 28.8731C64.0499 28.1531 63.7899 27.5798 63.2832 27.1531C62.7765 26.7131 62.1565 26.4931 61.4232 26.4931C60.7299 26.4931 60.1432 26.7065 59.6632 27.1331C59.1965 27.5465 58.9099 28.1265 58.8032 28.8731H64.0632ZM71.807 26.0931C72.167 25.5065 72.6336 25.0465 73.207 24.7131C73.7936 24.3798 74.4603 24.2131 75.207 24.2131V27.1531H74.467C73.587 27.1531 72.9203 27.3598 72.467 27.7731C72.027 28.1865 71.807 28.9065 71.807 29.9331V35.4531H69.007V24.3731H71.807V26.0931Z" fill="white"/>
</svg>
