<svg width="138" height="49" viewBox="0 0 138 49" fill="none" xmlns="http://www.w3.org/2000/svg">
<path d="M10.1445 0H8.45388C3.78528 0 0.000630379 3.78465 0.000630379 8.45325H10.1445V0Z" fill="#003399"/>
<path d="M0 8.45312H129.813C134.231 8.45312 137.813 12.0348 137.813 16.4531V40.4531C137.813 44.8714 134.231 48.4531 129.813 48.4531H8C3.58172 48.4531 0 44.8714 0 40.4531V8.45312Z" fill="#2F6DEB"/>
<path d="M23.5159 21.4931C24.9825 21.4931 26.2692 21.7798 27.3759 22.3531C28.4959 22.9265 29.3559 23.7465 29.9559 24.8131C30.5692 25.8665 30.8759 27.0931 30.8759 28.4931C30.8759 29.8931 30.5692 31.1198 29.9559 32.1731C29.3559 33.2131 28.4959 34.0198 27.3759 34.5931C26.2692 35.1665 24.9825 35.4531 23.5159 35.4531H18.6359V21.4931H23.5159ZM23.4159 33.0731C24.8825 33.0731 26.0159 32.6731 26.8159 31.8731C27.6159 31.0731 28.0159 29.9465 28.0159 28.4931C28.0159 27.0398 27.6159 25.9065 26.8159 25.0931C26.0159 24.2665 24.8825 23.8531 23.4159 23.8531H21.4359V33.0731H23.4159ZM43.2718 29.6731C43.2718 30.0731 43.2451 30.4331 43.1918 30.7531H35.0918C35.1585 31.5531 35.4385 32.1798 35.9318 32.6331C36.4251 33.0865 37.0318 33.3131 37.7518 33.3131C38.7918 33.3131 39.5318 32.8665 39.9718 31.9731H42.9918C42.6718 33.0398 42.0585 33.9198 41.1518 34.6131C40.2451 35.2931 39.1318 35.6331 37.8118 35.6331C36.7451 35.6331 35.7851 35.3998 34.9318 34.9331C34.0918 34.4531 33.4318 33.7798 32.9518 32.9131C32.4851 32.0465 32.2518 31.0465 32.2518 29.9131C32.2518 28.7665 32.4851 27.7598 32.9518 26.8931C33.4185 26.0265 34.0718 25.3598 34.9118 24.8931C35.7518 24.4265 36.7185 24.1931 37.8118 24.1931C38.8651 24.1931 39.8051 24.4198 40.6318 24.8731C41.4718 25.3265 42.1185 25.9731 42.5718 26.8131C43.0385 27.6398 43.2718 28.5931 43.2718 29.6731ZM40.3718 28.8731C40.3585 28.1531 40.0985 27.5798 39.5918 27.1531C39.0851 26.7131 38.4651 26.4931 37.7318 26.4931C37.0385 26.4931 36.4518 26.7065 35.9718 27.1331C35.5051 27.5465 35.2185 28.1265 35.1118 28.8731H40.3718ZM49.9355 32.8731L52.7355 24.3731H55.7155L51.6155 35.4531H48.2155L44.1355 24.3731H47.1355L49.9355 32.8731ZM67.5882 29.6731C67.5882 30.0731 67.5615 30.4331 67.5082 30.7531H59.4082C59.4749 31.5531 59.7549 32.1798 60.2482 32.6331C60.7415 33.0865 61.3482 33.3131 62.0682 33.3131C63.1082 33.3131 63.8482 32.8665 64.2882 31.9731H67.3082C66.9882 33.0398 66.3749 33.9198 65.4682 34.6131C64.5615 35.2931 63.4482 35.6331 62.1282 35.6331C61.0615 35.6331 60.1015 35.3998 59.2482 34.9331C58.4082 34.4531 57.7482 33.7798 57.2682 32.9131C56.8015 32.0465 56.5682 31.0465 56.5682 29.9131C56.5682 28.7665 56.8015 27.7598 57.2682 26.8931C57.7349 26.0265 58.3882 25.3598 59.2282 24.8931C60.0682 24.4265 61.0349 24.1931 62.1282 24.1931C63.1815 24.1931 64.1215 24.4198 64.9482 24.8731C65.7882 25.3265 66.4349 25.9731 66.8882 26.8131C67.3549 27.6398 67.5882 28.5931 67.5882 29.6731ZM64.6882 28.8731C64.6749 28.1531 64.4149 27.5798 63.9082 27.1531C63.4015 26.7131 62.7815 26.4931 62.0482 26.4931C61.3549 26.4931 60.7682 26.7065 60.2882 27.1331C59.8215 27.5465 59.5349 28.1265 59.4282 28.8731H64.6882ZM72.432 20.6531V35.4531H69.632V20.6531H72.432ZM80.1184 35.6331C79.0517 35.6331 78.0917 35.3998 77.2384 34.9331C76.385 34.4531 75.7117 33.7798 75.2184 32.9131C74.7384 32.0465 74.4984 31.0465 74.4984 29.9131C74.4984 28.7798 74.745 27.7798 75.2384 26.9131C75.745 26.0465 76.4317 25.3798 77.2984 24.9131C78.165 24.4331 79.1317 24.1931 80.1984 24.1931C81.265 24.1931 82.2317 24.4331 83.0984 24.9131C83.965 25.3798 84.645 26.0465 85.1384 26.9131C85.645 27.7798 85.8984 28.7798 85.8984 29.9131C85.8984 31.0465 85.6384 32.0465 85.1184 32.9131C84.6117 33.7798 83.9184 34.4531 83.0384 34.9331C82.1717 35.3998 81.1984 35.6331 80.1184 35.6331ZM80.1184 33.1931C80.625 33.1931 81.0984 33.0731 81.5384 32.8331C81.9917 32.5798 82.3517 32.2065 82.6184 31.7131C82.885 31.2198 83.0184 30.6198 83.0184 29.9131C83.0184 28.8598 82.7384 28.0531 82.1784 27.4931C81.6317 26.9198 80.9584 26.6331 80.1584 26.6331C79.3584 26.6331 78.685 26.9198 78.1384 27.4931C77.605 28.0531 77.3384 28.8598 77.3384 29.9131C77.3384 30.9665 77.5984 31.7798 78.1184 32.3531C78.6517 32.9131 79.3184 33.1931 80.1184 33.1931ZM90.7523 25.9731C91.1123 25.4665 91.6056 25.0465 92.2323 24.7131C92.8723 24.3665 93.5989 24.1931 94.4123 24.1931C95.3589 24.1931 96.2123 24.4265 96.9723 24.8931C97.7456 25.3598 98.3523 26.0265 98.7923 26.8931C99.2456 27.7465 99.4723 28.7398 99.4723 29.8731C99.4723 31.0065 99.2456 32.0131 98.7923 32.8931C98.3523 33.7598 97.7456 34.4331 96.9723 34.9131C96.2123 35.3931 95.3589 35.6331 94.4123 35.6331C93.5989 35.6331 92.8789 35.4665 92.2523 35.1331C91.6389 34.7998 91.1389 34.3798 90.7523 33.8731V40.7331H87.9523V24.3731H90.7523V25.9731ZM96.6123 29.8731C96.6123 29.2065 96.4723 28.6331 96.1923 28.1531C95.9256 27.6598 95.5656 27.2865 95.1123 27.0331C94.6723 26.7798 94.1923 26.6531 93.6723 26.6531C93.1656 26.6531 92.6856 26.7865 92.2323 27.0531C91.7923 27.3065 91.4323 27.6798 91.1523 28.1731C90.8856 28.6665 90.7523 29.2465 90.7523 29.9131C90.7523 30.5798 90.8856 31.1598 91.1523 31.6531C91.4323 32.1465 91.7923 32.5265 92.2323 32.7931C92.6856 33.0465 93.1656 33.1731 93.6723 33.1731C94.1923 33.1731 94.6723 33.0398 95.1123 32.7731C95.5656 32.5065 95.9256 32.1265 96.1923 31.6331C96.4723 31.1398 96.6123 30.5531 96.6123 29.8731ZM111.807 29.6731C111.807 30.0731 111.78 30.4331 111.727 30.7531H103.627C103.694 31.5531 103.974 32.1798 104.467 32.6331C104.96 33.0865 105.567 33.3131 106.287 33.3131C107.327 33.3131 108.067 32.8665 108.507 31.9731H111.527C111.207 33.0398 110.594 33.9198 109.687 34.6131C108.78 35.2931 107.667 35.6331 106.347 35.6331C105.28 35.6331 104.32 35.3998 103.467 34.9331C102.627 34.4531 101.967 33.7798 101.487 32.9131C101.02 32.0465 100.787 31.0465 100.787 29.9131C100.787 28.7665 101.02 27.7598 101.487 26.8931C101.954 26.0265 102.607 25.3598 103.447 24.8931C104.287 24.4265 105.254 24.1931 106.347 24.1931C107.4 24.1931 108.34 24.4198 109.167 24.8731C110.007 25.3265 110.654 25.9731 111.107 26.8131C111.574 27.6398 111.807 28.5931 111.807 29.6731ZM108.907 28.8731C108.894 28.1531 108.634 27.5798 108.127 27.1531C107.62 26.7131 107 26.4931 106.267 26.4931C105.574 26.4931 104.987 26.7065 104.507 27.1331C104.04 27.5465 103.754 28.1265 103.647 28.8731H108.907ZM116.651 26.0931C117.011 25.5065 117.477 25.0465 118.051 24.7131C118.637 24.3798 119.304 24.2131 120.051 24.2131V27.1531H119.311C118.431 27.1531 117.764 27.3598 117.311 27.7731C116.871 28.1865 116.651 28.9065 116.651 29.9331V35.4531H113.851V24.3731H116.651V26.0931Z" fill="white"/>
</svg>
