<svg width="117" height="49" viewBox="0 0 117 49" fill="none" xmlns="http://www.w3.org/2000/svg">
<path d="M10.1445 0H8.45388C3.78528 0 0.000630379 3.78465 0.000630379 8.45325H10.1445V0Z" fill="#003399"/>
<path d="M0 8.45312H108.813C113.231 8.45312 116.813 12.0348 116.813 16.4531V40.4531C116.813 44.8714 113.231 48.4531 108.813 48.4531H8C3.58173 48.4531 0 44.8714 0 40.4531V8.45312Z" fill="#2F6DEB"/>
<path d="M21.2874 21.4931V35.4531H18.4874V21.4931H21.2874ZM30.1938 24.2131C31.5138 24.2131 32.5805 24.6331 33.3938 25.4731C34.2072 26.2998 34.6138 27.4598 34.6138 28.9531V35.4531H31.8138V29.3331C31.8138 28.4531 31.5938 27.7798 31.1538 27.3131C30.7138 26.8331 30.1138 26.5931 29.3538 26.5931C28.5805 26.5931 27.9672 26.8331 27.5138 27.3131C27.0738 27.7798 26.8538 28.4531 26.8538 29.3331V35.4531H24.0538V24.3731H26.8538V25.7531C27.2272 25.2731 27.7005 24.8998 28.2738 24.6331C28.8605 24.3531 29.5005 24.2131 30.1938 24.2131ZM41.8965 32.8731L44.6965 24.3731H47.6765L43.5765 35.4531H40.1765L36.0965 24.3731H39.0965L41.8965 32.8731ZM59.5491 29.6731C59.5491 30.0731 59.5225 30.4331 59.4691 30.7531H51.3691C51.4358 31.5531 51.7158 32.1798 52.2091 32.6331C52.7025 33.0865 53.3091 33.3131 54.0291 33.3131C55.0691 33.3131 55.8091 32.8665 56.2491 31.9731H59.2691C58.9491 33.0398 58.3358 33.9198 57.4291 34.6131C56.5225 35.2931 55.4091 35.6331 54.0891 35.6331C53.0225 35.6331 52.0625 35.3998 51.2091 34.9331C50.3691 34.4531 49.7091 33.7798 49.2291 32.9131C48.7625 32.0465 48.5291 31.0465 48.5291 29.9131C48.5291 28.7665 48.7625 27.7598 49.2291 26.8931C49.6958 26.0265 50.3491 25.3598 51.1891 24.8931C52.0291 24.4265 52.9958 24.1931 54.0891 24.1931C55.1425 24.1931 56.0825 24.4198 56.9091 24.8731C57.7491 25.3265 58.3958 25.9731 58.8491 26.8131C59.3158 27.6398 59.5491 28.5931 59.5491 29.6731ZM56.6491 28.8731C56.6358 28.1531 56.3758 27.5798 55.8691 27.1531C55.3625 26.7131 54.7425 26.4931 54.0091 26.4931C53.3158 26.4931 52.7291 26.7065 52.2491 27.1331C51.7825 27.5465 51.4958 28.1265 51.3891 28.8731H56.6491ZM65.8329 35.6331C64.9262 35.6331 64.1129 35.4731 63.3929 35.1531C62.6729 34.8198 62.0996 34.3731 61.6729 33.8131C61.2596 33.2531 61.0329 32.6331 60.9929 31.9531H63.8129C63.8662 32.3798 64.0729 32.7331 64.4329 33.0131C64.8062 33.2931 65.2662 33.4331 65.8129 33.4331C66.3462 33.4331 66.7596 33.3265 67.0529 33.1131C67.3596 32.8998 67.5129 32.6265 67.5129 32.2931C67.5129 31.9331 67.3262 31.6665 66.9529 31.4931C66.5929 31.3065 66.0129 31.1065 65.2129 30.8931C64.3862 30.6931 63.7062 30.4865 63.1729 30.2731C62.6529 30.0598 62.1996 29.7331 61.8129 29.2931C61.4396 28.8531 61.2529 28.2598 61.2529 27.5131C61.2529 26.8998 61.4262 26.3398 61.7729 25.8331C62.1329 25.3265 62.6396 24.9265 63.2929 24.6331C63.9596 24.3398 64.7396 24.1931 65.6329 24.1931C66.9529 24.1931 68.0062 24.5265 68.7929 25.1931C69.5796 25.8465 70.0129 26.7331 70.0929 27.8531H67.4129C67.3729 27.4131 67.1862 27.0665 66.8529 26.8131C66.5329 26.5465 66.0996 26.4131 65.5529 26.4131C65.0462 26.4131 64.6529 26.5065 64.3729 26.6931C64.1062 26.8798 63.9729 27.1398 63.9729 27.4731C63.9729 27.8465 64.1596 28.1331 64.5329 28.3331C64.9062 28.5198 65.4862 28.7131 66.2729 28.9131C67.0729 29.1131 67.7329 29.3198 68.2529 29.5331C68.7729 29.7465 69.2196 30.0798 69.5929 30.5331C69.9796 30.9731 70.1796 31.5598 70.1929 32.2931C70.1929 32.9331 70.0129 33.5065 69.6529 34.0131C69.3062 34.5198 68.7996 34.9198 68.1329 35.2131C67.4796 35.4931 66.7129 35.6331 65.8329 35.6331ZM75.7513 26.6731V32.0331C75.7513 32.4065 75.838 32.6798 76.0113 32.8531C76.198 33.0131 76.5047 33.0931 76.9313 33.0931H78.2313V35.4531H76.4713C74.1113 35.4531 72.9313 34.3065 72.9313 32.0131V26.6731H71.6113V24.3731H72.9313V21.6331H75.7513V24.3731H78.2313V26.6731H75.7513ZM85.1652 35.6331C84.0986 35.6331 83.1386 35.3998 82.2852 34.9331C81.4319 34.4531 80.7586 33.7798 80.2652 32.9131C79.7852 32.0465 79.5452 31.0465 79.5452 29.9131C79.5452 28.7798 79.7919 27.7798 80.2852 26.9131C80.7919 26.0465 81.4786 25.3798 82.3452 24.9131C83.2119 24.4331 84.1786 24.1931 85.2452 24.1931C86.3119 24.1931 87.2786 24.4331 88.1452 24.9131C89.0119 25.3798 89.6919 26.0465 90.1852 26.9131C90.6919 27.7798 90.9452 28.7798 90.9452 29.9131C90.9452 31.0465 90.6852 32.0465 90.1652 32.9131C89.6586 33.7798 88.9652 34.4531 88.0852 34.9331C87.2186 35.3998 86.2452 35.6331 85.1652 35.6331ZM85.1652 33.1931C85.6719 33.1931 86.1452 33.0731 86.5852 32.8331C87.0386 32.5798 87.3986 32.2065 87.6652 31.7131C87.9319 31.2198 88.0652 30.6198 88.0652 29.9131C88.0652 28.8598 87.7852 28.0531 87.2252 27.4931C86.6786 26.9198 86.0052 26.6331 85.2052 26.6331C84.4052 26.6331 83.7319 26.9198 83.1852 27.4931C82.6519 28.0531 82.3852 28.8598 82.3852 29.9131C82.3852 30.9665 82.6452 31.7798 83.1652 32.3531C83.6986 32.9131 84.3652 33.1931 85.1652 33.1931ZM95.7991 26.0931C96.1591 25.5065 96.6258 25.0465 97.1991 24.7131C97.7858 24.3798 98.4525 24.2131 99.1991 24.2131V27.1531H98.4591C97.5791 27.1531 96.9125 27.3598 96.4591 27.7731C96.0191 28.1865 95.7991 28.9065 95.7991 29.9331V35.4531H92.9991V24.3731H95.7991V26.0931Z" fill="white"/>
</svg>
