<svg width="143" height="49" viewBox="0 0 143 49" fill="none" xmlns="http://www.w3.org/2000/svg">
<path d="M10.1445 0H8.45388C3.78528 0 0.000630379 3.78465 0.000630379 8.45325H10.1445V0Z" fill="#003399"/>
<path d="M0 8.45312H134.813C139.231 8.45312 142.813 12.0348 142.813 16.4531V40.4531C142.813 44.8714 139.231 48.4531 134.813 48.4531H8C3.58173 48.4531 0 44.8714 0 40.4531V8.45312Z" fill="#2F6DEB"/>
<path d="M26.2131 35.4531L21.1331 29.2331V35.4531H18.3331V21.4931H21.1331V27.7531L26.2131 21.4931H29.5931L23.8331 28.4131L29.7531 35.4531H26.2131ZM36.5148 35.6331C35.4482 35.6331 34.4882 35.3998 33.6348 34.9331C32.7815 34.4531 32.1082 33.7798 31.6148 32.9131C31.1348 32.0465 30.8948 31.0465 30.8948 29.9131C30.8948 28.7798 31.1415 27.7798 31.6348 26.9131C32.1415 26.0465 32.8282 25.3798 33.6948 24.9131C34.5615 24.4331 35.5282 24.1931 36.5948 24.1931C37.6615 24.1931 38.6282 24.4331 39.4948 24.9131C40.3615 25.3798 41.0415 26.0465 41.5348 26.9131C42.0415 27.7798 42.2948 28.7798 42.2948 29.9131C42.2948 31.0465 42.0348 32.0465 41.5148 32.9131C41.0082 33.7798 40.3148 34.4531 39.4348 34.9331C38.5682 35.3998 37.5948 35.6331 36.5148 35.6331ZM36.5148 33.1931C37.0215 33.1931 37.4948 33.0731 37.9348 32.8331C38.3882 32.5798 38.7482 32.2065 39.0148 31.7131C39.2815 31.2198 39.4148 30.6198 39.4148 29.9131C39.4148 28.8598 39.1348 28.0531 38.5748 27.4931C38.0282 26.9198 37.3548 26.6331 36.5548 26.6331C35.7548 26.6331 35.0815 26.9198 34.5348 27.4931C34.0015 28.0531 33.7348 28.8598 33.7348 29.9131C33.7348 30.9665 33.9948 31.7798 34.5148 32.3531C35.0482 32.9131 35.7148 33.1931 36.5148 33.1931ZM50.4888 24.2131C51.8088 24.2131 52.8754 24.6331 53.6888 25.4731C54.5021 26.2998 54.9088 27.4598 54.9088 28.9531V35.4531H52.1088V29.3331C52.1088 28.4531 51.8888 27.7798 51.4488 27.3131C51.0088 26.8331 50.4088 26.5931 49.6488 26.5931C48.8754 26.5931 48.2621 26.8331 47.8088 27.3131C47.3688 27.7798 47.1488 28.4531 47.1488 29.3331V35.4531H44.3488V24.3731H47.1488V25.7531C47.5221 25.2731 47.9954 24.8998 48.5688 24.6331C49.1554 24.3531 49.7954 24.2131 50.4888 24.2131ZM60.8314 26.6731V32.0331C60.8314 32.4065 60.9181 32.6798 61.0914 32.8531C61.2781 33.0131 61.5847 33.0931 62.0114 33.0931H63.3114V35.4531H61.5514C59.1914 35.4531 58.0114 34.3065 58.0114 32.0131V26.6731H56.6914V24.3731H58.0114V21.6331H60.8314V24.3731H63.3114V26.6731H60.8314ZM68.1253 26.0931C68.4853 25.5065 68.952 25.0465 69.5253 24.7131C70.112 24.3798 70.7786 24.2131 71.5253 24.2131V27.1531H70.7853C69.9053 27.1531 69.2386 27.3598 68.7853 27.7731C68.3453 28.1865 68.1253 28.9065 68.1253 29.9331V35.4531H65.3253V24.3731H68.1253V26.0931ZM72.6912 29.8731C72.6912 28.7531 72.9112 27.7598 73.3512 26.8931C73.8046 26.0265 74.4113 25.3598 75.1713 24.8931C75.9446 24.4265 76.8046 24.1931 77.7513 24.1931C78.5779 24.1931 79.2979 24.3598 79.9113 24.6931C80.5379 25.0265 81.0379 25.4465 81.4113 25.9531V24.3731H84.2313V35.4531H81.4113V33.8331C81.0513 34.3531 80.5513 34.7865 79.9113 35.1331C79.2846 35.4665 78.5579 35.6331 77.7313 35.6331C76.7979 35.6331 75.9446 35.3931 75.1713 34.9131C74.4113 34.4331 73.8046 33.7598 73.3512 32.8931C72.9112 32.0131 72.6912 31.0065 72.6912 29.8731ZM81.4113 29.9131C81.4113 29.2331 81.2779 28.6531 81.0113 28.1731C80.7446 27.6798 80.3846 27.3065 79.9313 27.0531C79.4779 26.7865 78.9913 26.6531 78.4713 26.6531C77.9513 26.6531 77.4713 26.7798 77.0312 27.0331C76.5913 27.2865 76.2313 27.6598 75.9513 28.1531C75.6846 28.6331 75.5513 29.2065 75.5513 29.8731C75.5513 30.5398 75.6846 31.1265 75.9513 31.6331C76.2313 32.1265 76.5913 32.5065 77.0312 32.7731C77.4846 33.0398 77.9646 33.1731 78.4713 33.1731C78.9913 33.1731 79.4779 33.0465 79.9313 32.7931C80.3846 32.5265 80.7446 32.1531 81.0113 31.6731C81.2779 31.1798 81.4113 30.5931 81.4113 29.9131ZM93.5259 35.4531L89.7659 30.7331V35.4531H86.9659V20.6531H89.7659V29.0731L93.4859 24.3731H97.1259L92.2459 29.9331L97.1659 35.4531H93.5259ZM101.906 26.6731V32.0331C101.906 32.4065 101.992 32.6798 102.166 32.8531C102.352 33.0131 102.659 33.0931 103.086 33.0931H104.386V35.4531H102.626C100.266 35.4531 99.0856 34.3065 99.0856 32.0131V26.6731H97.7656V24.3731H99.0856V21.6331H101.906V24.3731H104.386V26.6731H101.906ZM111.32 35.6331C110.253 35.6331 109.293 35.3998 108.44 34.9331C107.586 34.4531 106.913 33.7798 106.42 32.9131C105.94 32.0465 105.7 31.0465 105.7 29.9131C105.7 28.7798 105.946 27.7798 106.44 26.9131C106.946 26.0465 107.633 25.3798 108.5 24.9131C109.366 24.4331 110.333 24.1931 111.4 24.1931C112.466 24.1931 113.433 24.4331 114.3 24.9131C115.166 25.3798 115.846 26.0465 116.34 26.9131C116.846 27.7798 117.1 28.7798 117.1 29.9131C117.1 31.0465 116.84 32.0465 116.32 32.9131C115.813 33.7798 115.12 34.4531 114.24 34.9331C113.373 35.3998 112.4 35.6331 111.32 35.6331ZM111.32 33.1931C111.826 33.1931 112.3 33.0731 112.74 32.8331C113.193 32.5798 113.553 32.2065 113.82 31.7131C114.086 31.2198 114.22 30.6198 114.22 29.9131C114.22 28.8598 113.94 28.0531 113.38 27.4931C112.833 26.9198 112.16 26.6331 111.36 26.6331C110.56 26.6331 109.886 26.9198 109.34 27.4931C108.806 28.0531 108.54 28.8598 108.54 29.9131C108.54 30.9665 108.8 31.7798 109.32 32.3531C109.853 32.9131 110.52 33.1931 111.32 33.1931ZM121.953 26.0931C122.313 25.5065 122.78 25.0465 123.353 24.7131C123.94 24.3798 124.607 24.2131 125.353 24.2131V27.1531H124.613C123.733 27.1531 123.067 27.3598 122.613 27.7731C122.173 28.1865 121.953 28.9065 121.953 29.9331V35.4531H119.153V24.3731H121.953V26.0931Z" fill="white"/>
</svg>
