<svg width="155" height="49" viewBox="0 0 155 49" fill="none" xmlns="http://www.w3.org/2000/svg">
<path d="M10.1445 0H8.45388C3.78528 0 0.000630379 3.78465 0.000630379 8.45325H10.1445V0Z" fill="#003399"/>
<path d="M0 8.45312H146.813C151.231 8.45312 154.813 12.0348 154.813 16.4531V40.4531C154.813 44.8714 151.231 48.4531 146.813 48.4531H8C3.58172 48.4531 0 44.8714 0 40.4531V8.45312Z" fill="#2F6DEB"/>
<path d="M21.3323 33.2331H25.9323V35.4531H18.5323V21.4931H21.3323V33.2331ZM26.992 29.8731C26.992 28.7531 27.212 27.7598 27.652 26.8931C28.1054 26.0265 28.712 25.3598 29.472 24.8931C30.2454 24.4265 31.1054 24.1931 32.052 24.1931C32.8787 24.1931 33.5987 24.3598 34.212 24.6931C34.8387 25.0265 35.3387 25.4465 35.712 25.9531V24.3731H38.532V35.4531H35.712V33.8331C35.352 34.3531 34.852 34.7865 34.212 35.1331C33.5854 35.4665 32.8587 35.6331 32.032 35.6331C31.0987 35.6331 30.2454 35.3931 29.472 34.9131C28.712 34.4331 28.1054 33.7598 27.652 32.8931C27.212 32.0131 26.992 31.0065 26.992 29.8731ZM35.712 29.9131C35.712 29.2331 35.5787 28.6531 35.312 28.1731C35.0454 27.6798 34.6854 27.3065 34.232 27.0531C33.7787 26.7865 33.292 26.6531 32.772 26.6531C32.252 26.6531 31.772 26.7798 31.332 27.0331C30.892 27.2865 30.532 27.6598 30.252 28.1531C29.9854 28.6331 29.852 29.2065 29.852 29.8731C29.852 30.5398 29.9854 31.1265 30.252 31.6331C30.532 32.1265 30.892 32.5065 31.332 32.7731C31.7854 33.0398 32.2654 33.1731 32.772 33.1731C33.292 33.1731 33.7787 33.0465 34.232 32.7931C34.6854 32.5265 35.0454 32.1531 35.312 31.6731C35.5787 31.1798 35.712 30.5931 35.712 29.9131ZM47.4067 24.2131C48.7267 24.2131 49.7934 24.6331 50.6067 25.4731C51.4201 26.2998 51.8267 27.4598 51.8267 28.9531V35.4531H49.0267V29.3331C49.0267 28.4531 48.8067 27.7798 48.3667 27.3131C47.9267 26.8331 47.3267 26.5931 46.5667 26.5931C45.7934 26.5931 45.1801 26.8331 44.7267 27.3131C44.2867 27.7798 44.0667 28.4531 44.0667 29.3331V35.4531H41.2667V24.3731H44.0667V25.7531C44.4401 25.2731 44.9134 24.8998 45.4867 24.6331C46.0734 24.3531 46.7134 24.2131 47.4067 24.2131ZM53.7694 29.8731C53.7694 28.7531 53.9894 27.7598 54.4294 26.8931C54.8827 26.0265 55.496 25.3598 56.2694 24.8931C57.0427 24.4265 57.9027 24.1931 58.8494 24.1931C59.5694 24.1931 60.256 24.3531 60.9094 24.6731C61.5627 24.9798 62.0827 25.3931 62.4694 25.9131V20.6531H65.3094V35.4531H62.4694V33.8131C62.1227 34.3598 61.636 34.7998 61.0094 35.1331C60.3827 35.4665 59.656 35.6331 58.8294 35.6331C57.896 35.6331 57.0427 35.3931 56.2694 34.9131C55.496 34.4331 54.8827 33.7598 54.4294 32.8931C53.9894 32.0131 53.7694 31.0065 53.7694 29.8731ZM62.4894 29.9131C62.4894 29.2331 62.356 28.6531 62.0894 28.1731C61.8227 27.6798 61.4627 27.3065 61.0094 27.0531C60.556 26.7865 60.0694 26.6531 59.5494 26.6531C59.0294 26.6531 58.5494 26.7798 58.1094 27.0331C57.6694 27.2865 57.3094 27.6598 57.0294 28.1531C56.7627 28.6331 56.6294 29.2065 56.6294 29.8731C56.6294 30.5398 56.7627 31.1265 57.0294 31.6331C57.3094 32.1265 57.6694 32.5065 58.1094 32.7731C58.5627 33.0398 59.0427 33.1731 59.5494 33.1731C60.0694 33.1731 60.556 33.0465 61.0094 32.7931C61.4627 32.5265 61.8227 32.1531 62.0894 31.6731C62.356 31.1798 62.4894 30.5931 62.4894 29.9131ZM79.2897 35.5931C77.983 35.5931 76.783 35.2865 75.6897 34.6731C74.5964 34.0598 73.7297 33.2131 73.0897 32.1331C72.4497 31.0398 72.1297 29.8065 72.1297 28.4331C72.1297 27.0731 72.4497 25.8531 73.0897 24.7731C73.7297 23.6798 74.5964 22.8265 75.6897 22.2131C76.783 21.5998 77.983 21.2931 79.2897 21.2931C80.6097 21.2931 81.8097 21.5998 82.8897 22.2131C83.983 22.8265 84.843 23.6798 85.4697 24.7731C86.1097 25.8531 86.4297 27.0731 86.4297 28.4331C86.4297 29.8065 86.1097 31.0398 85.4697 32.1331C84.843 33.2131 83.983 34.0598 82.8897 34.6731C81.7964 35.2865 80.5964 35.5931 79.2897 35.5931ZM79.2897 33.0931C80.1297 33.0931 80.8697 32.9065 81.5097 32.5331C82.1497 32.1465 82.6497 31.5998 83.0097 30.8931C83.3697 30.1865 83.5497 29.3665 83.5497 28.4331C83.5497 27.4998 83.3697 26.6865 83.0097 25.9931C82.6497 25.2865 82.1497 24.7465 81.5097 24.3731C80.8697 23.9998 80.1297 23.8131 79.2897 23.8131C78.4497 23.8131 77.703 23.9998 77.0497 24.3731C76.4097 24.7465 75.9097 25.2865 75.5497 25.9931C75.1897 26.6865 75.0097 27.4998 75.0097 28.4331C75.0097 29.3665 75.1897 30.1865 75.5497 30.8931C75.9097 31.5998 76.4097 32.1465 77.0497 32.5331C77.703 32.9065 78.4497 33.0931 79.2897 33.0931ZM103.873 24.3731L100.633 35.4531H97.6128L95.5928 27.7131L93.5728 35.4531H90.5328L87.2728 24.3731H90.1128L92.0728 32.8131L94.1928 24.3731H97.1528L99.2328 32.7931L101.193 24.3731H103.873ZM111.528 24.2131C112.848 24.2131 113.914 24.6331 114.728 25.4731C115.541 26.2998 115.948 27.4598 115.948 28.9531V35.4531H113.148V29.3331C113.148 28.4531 112.928 27.7798 112.488 27.3131C112.048 26.8331 111.448 26.5931 110.688 26.5931C109.914 26.5931 109.301 26.8331 108.848 27.3131C108.408 27.7798 108.188 28.4531 108.188 29.3331V35.4531H105.388V24.3731H108.188V25.7531C108.561 25.2731 109.034 24.8998 109.608 24.6331C110.194 24.3531 110.834 24.2131 111.528 24.2131ZM128.91 29.6731C128.91 30.0731 128.884 30.4331 128.83 30.7531H120.73C120.797 31.5531 121.077 32.1798 121.57 32.6331C122.064 33.0865 122.67 33.3131 123.39 33.3131C124.43 33.3131 125.17 32.8665 125.61 31.9731H128.63C128.31 33.0398 127.697 33.9198 126.79 34.6131C125.884 35.2931 124.77 35.6331 123.45 35.6331C122.384 35.6331 121.424 35.3998 120.57 34.9331C119.73 34.4531 119.07 33.7798 118.59 32.9131C118.124 32.0465 117.89 31.0465 117.89 29.9131C117.89 28.7665 118.124 27.7598 118.59 26.8931C119.057 26.0265 119.71 25.3598 120.55 24.8931C121.39 24.4265 122.357 24.1931 123.45 24.1931C124.504 24.1931 125.444 24.4198 126.27 24.8731C127.11 25.3265 127.757 25.9731 128.21 26.8131C128.677 27.6398 128.91 28.5931 128.91 29.6731ZM126.01 28.8731C125.997 28.1531 125.737 27.5798 125.23 27.1531C124.724 26.7131 124.104 26.4931 123.37 26.4931C122.677 26.4931 122.09 26.7065 121.61 27.1331C121.144 27.5465 120.857 28.1265 120.75 28.8731H126.01ZM133.754 26.0931C134.114 25.5065 134.581 25.0465 135.154 24.7131C135.741 24.3798 136.408 24.2131 137.154 24.2131V27.1531H136.414C135.534 27.1531 134.868 27.3598 134.414 27.7731C133.974 28.1865 133.754 28.9065 133.754 29.9331V35.4531H130.954V24.3731H133.754V26.0931Z" fill="white"/>
</svg>
