<svg width="91" height="49" viewBox="0 0 91 49" fill="none" xmlns="http://www.w3.org/2000/svg">
<path d="M10.1445 0H8.45388C3.78528 0 0.000630379 3.78465 0.000630379 8.45325H10.1445V0Z" fill="#003399"/>
<path d="M0 8.45312H82.813C87.2313 8.45312 90.813 12.0348 90.813 16.4531V40.4531C90.813 44.8714 87.2313 48.4531 82.813 48.4531H8C3.58172 48.4531 0 44.8714 0 40.4531V8.45312Z" fill="#2F6DEB"/>
<path d="M23.5594 35.5931C22.586 35.5931 21.706 35.4265 20.9194 35.0931C20.146 34.7598 19.5327 34.2798 19.0794 33.6531C18.626 33.0265 18.3927 32.2865 18.3794 31.4331H21.3794C21.4194 32.0065 21.6194 32.4598 21.9794 32.7931C22.3527 33.1265 22.8594 33.2931 23.4994 33.2931C24.1527 33.2931 24.666 33.1398 25.0394 32.8331C25.4127 32.5131 25.5994 32.0998 25.5994 31.5931C25.5994 31.1798 25.4727 30.8398 25.2194 30.5731C24.966 30.3065 24.646 30.0998 24.2594 29.9531C23.886 29.7931 23.366 29.6198 22.6994 29.4331C21.7927 29.1665 21.0527 28.9065 20.4794 28.6531C19.9194 28.3865 19.4327 27.9931 19.0194 27.4731C18.6194 26.9398 18.4194 26.2331 18.4194 25.3531C18.4194 24.5265 18.626 23.8065 19.0394 23.1931C19.4527 22.5798 20.0327 22.1131 20.7794 21.7931C21.526 21.4598 22.3794 21.2931 23.3394 21.2931C24.7794 21.2931 25.946 21.6465 26.8394 22.3531C27.746 23.0465 28.246 24.0198 28.3394 25.2731H25.2594C25.2327 24.7931 25.026 24.3998 24.6394 24.0931C24.266 23.7731 23.766 23.6131 23.1394 23.6131C22.5927 23.6131 22.1527 23.7531 21.8194 24.0331C21.4994 24.3131 21.3394 24.7198 21.3394 25.2531C21.3394 25.6265 21.4594 25.9398 21.6994 26.1931C21.9527 26.4331 22.2594 26.6331 22.6194 26.7931C22.9927 26.9398 23.5127 27.1131 24.1794 27.3131C25.086 27.5798 25.826 27.8465 26.3994 28.1131C26.9727 28.3798 27.466 28.7798 27.8794 29.3131C28.2927 29.8465 28.4994 30.5465 28.4994 31.4131C28.4994 32.1598 28.306 32.8531 27.9194 33.4931C27.5327 34.1331 26.966 34.6465 26.2194 35.0331C25.4727 35.4065 24.586 35.5931 23.5594 35.5931ZM41.2269 29.6731C41.2269 30.0731 41.2002 30.4331 41.1469 30.7531H33.0469C33.1135 31.5531 33.3935 32.1798 33.8869 32.6331C34.3802 33.0865 34.9869 33.3131 35.7069 33.3131C36.7469 33.3131 37.4869 32.8665 37.9269 31.9731H40.9469C40.6269 33.0398 40.0135 33.9198 39.1069 34.6131C38.2002 35.2931 37.0869 35.6331 35.7669 35.6331C34.7002 35.6331 33.7402 35.3998 32.8869 34.9331C32.0469 34.4531 31.3869 33.7798 30.9069 32.9131C30.4402 32.0465 30.2069 31.0465 30.2069 29.9131C30.2069 28.7665 30.4402 27.7598 30.9069 26.8931C31.3735 26.0265 32.0269 25.3598 32.8669 24.8931C33.7069 24.4265 34.6735 24.1931 35.7669 24.1931C36.8202 24.1931 37.7602 24.4198 38.5869 24.8731C39.4269 25.3265 40.0735 25.9731 40.5269 26.8131C40.9935 27.6398 41.2269 28.5931 41.2269 29.6731ZM38.3269 28.8731C38.3135 28.1531 38.0535 27.5798 37.5469 27.1531C37.0402 26.7131 36.4202 26.4931 35.6869 26.4931C34.9935 26.4931 34.4069 26.7065 33.9269 27.1331C33.4602 27.5465 33.1735 28.1265 33.0669 28.8731H38.3269ZM46.0706 20.6531V35.4531H43.2706V20.6531H46.0706ZM51.637 20.6531V35.4531H48.837V20.6531H51.637ZM64.7034 29.6731C64.7034 30.0731 64.6768 30.4331 64.6234 30.7531H56.5234C56.5901 31.5531 56.8701 32.1798 57.3634 32.6331C57.8568 33.0865 58.4634 33.3131 59.1834 33.3131C60.2234 33.3131 60.9634 32.8665 61.4034 31.9731H64.4234C64.1034 33.0398 63.4901 33.9198 62.5834 34.6131C61.6768 35.2931 60.5634 35.6331 59.2434 35.6331C58.1768 35.6331 57.2168 35.3998 56.3634 34.9331C55.5234 34.4531 54.8634 33.7798 54.3834 32.9131C53.9168 32.0465 53.6834 31.0465 53.6834 29.9131C53.6834 28.7665 53.9168 27.7598 54.3834 26.8931C54.8501 26.0265 55.5034 25.3598 56.3434 24.8931C57.1834 24.4265 58.1501 24.1931 59.2434 24.1931C60.2968 24.1931 61.2368 24.4198 62.0634 24.8731C62.9034 25.3265 63.5501 25.9731 64.0034 26.8131C64.4701 27.6398 64.7034 28.5931 64.7034 29.6731ZM61.8034 28.8731C61.7901 28.1531 61.5301 27.5798 61.0234 27.1531C60.5168 26.7131 59.8968 26.4931 59.1634 26.4931C58.4701 26.4931 57.8834 26.7065 57.4034 27.1331C56.9368 27.5465 56.6501 28.1265 56.5434 28.8731H61.8034ZM69.5472 26.0931C69.9072 25.5065 70.3739 25.0465 70.9472 24.7131C71.5339 24.3798 72.2005 24.2131 72.9472 24.2131V27.1531H72.2072C71.3272 27.1531 70.6605 27.3598 70.2072 27.7731C69.7672 28.1865 69.5472 28.9065 69.5472 29.9331V35.4531H66.7472V24.3731H69.5472V26.0931Z" fill="white"/>
</svg>
