<svg width="119" height="49" viewBox="0 0 119 49" fill="none" xmlns="http://www.w3.org/2000/svg">
<path d="M10.1445 0H8.45388C3.78528 0 0.000630379 3.78465 0.000630379 8.45325H10.1445V0Z" fill="#003399"/>
<path d="M0 8.45312H110.813C115.231 8.45312 118.813 12.0348 118.813 16.4531V40.4531C118.813 44.8714 115.231 48.4531 110.813 48.4531H8C3.58172 48.4531 0 44.8714 0 40.4531V8.45312Z" fill="#2F6DEB"/>
<path d="M23.5652 35.5931C22.5919 35.5931 21.7119 35.4265 20.9252 35.0931C20.1519 34.7598 19.5386 34.2798 19.0852 33.6531C18.6319 33.0265 18.3986 32.2865 18.3852 31.4331H21.3852C21.4252 32.0065 21.6252 32.4598 21.9852 32.7931C22.3586 33.1265 22.8652 33.2931 23.5052 33.2931C24.1586 33.2931 24.6719 33.1398 25.0452 32.8331C25.4186 32.5131 25.6052 32.0998 25.6052 31.5931C25.6052 31.1798 25.4786 30.8398 25.2252 30.5731C24.9719 30.3065 24.6519 30.0998 24.2652 29.9531C23.8919 29.7931 23.3719 29.6198 22.7052 29.4331C21.7986 29.1665 21.0586 28.9065 20.4852 28.6531C19.9252 28.3865 19.4386 27.9931 19.0252 27.4731C18.6252 26.9398 18.4252 26.2331 18.4252 25.3531C18.4252 24.5265 18.6319 23.8065 19.0452 23.1931C19.4586 22.5798 20.0386 22.1131 20.7852 21.7931C21.5319 21.4598 22.3852 21.2931 23.3452 21.2931C24.7852 21.2931 25.9519 21.6465 26.8452 22.3531C27.7519 23.0465 28.2519 24.0198 28.3452 25.2731H25.2652C25.2386 24.7931 25.0319 24.3998 24.6452 24.0931C24.2719 23.7731 23.7719 23.6131 23.1452 23.6131C22.5986 23.6131 22.1586 23.7531 21.8252 24.0331C21.5052 24.3131 21.3452 24.7198 21.3452 25.2531C21.3452 25.6265 21.4652 25.9398 21.7052 26.1931C21.9586 26.4331 22.2652 26.6331 22.6252 26.7931C22.9986 26.9398 23.5186 27.1131 24.1852 27.3131C25.0919 27.5798 25.8319 27.8465 26.4052 28.1131C26.9786 28.3798 27.4719 28.7798 27.8852 29.3131C28.2986 29.8465 28.5052 30.5465 28.5052 31.4131C28.5052 32.1598 28.3119 32.8531 27.9252 33.4931C27.5386 34.1331 26.9719 34.6465 26.2252 35.0331C25.4786 35.4065 24.5919 35.5931 23.5652 35.5931ZM41.3927 24.3731V35.4531H38.5727V34.0531C38.2127 34.5331 37.7394 34.9131 37.1527 35.1931C36.5794 35.4598 35.9527 35.5931 35.2727 35.5931C34.4061 35.5931 33.6394 35.4131 32.9727 35.0531C32.3061 34.6798 31.7794 34.1398 31.3927 33.4331C31.0194 32.7131 30.8327 31.8598 30.8327 30.8731V24.3731H33.6327V30.4731C33.6327 31.3531 33.8527 32.0331 34.2927 32.5131C34.7327 32.9798 35.3327 33.2131 36.0927 33.2131C36.8661 33.2131 37.4727 32.9798 37.9127 32.5131C38.3527 32.0331 38.5727 31.3531 38.5727 30.4731V24.3731H41.3927ZM46.9554 25.9731C47.3154 25.4665 47.8087 25.0465 48.4354 24.7131C49.0754 24.3665 49.8021 24.1931 50.6154 24.1931C51.5621 24.1931 52.4154 24.4265 53.1754 24.8931C53.9487 25.3598 54.5554 26.0265 54.9954 26.8931C55.4487 27.7465 55.6754 28.7398 55.6754 29.8731C55.6754 31.0065 55.4487 32.0131 54.9954 32.8931C54.5554 33.7598 53.9487 34.4331 53.1754 34.9131C52.4154 35.3931 51.5621 35.6331 50.6154 35.6331C49.8021 35.6331 49.0821 35.4665 48.4554 35.1331C47.8421 34.7998 47.3421 34.3798 46.9554 33.8731V40.7331H44.1554V24.3731H46.9554V25.9731ZM52.8154 29.8731C52.8154 29.2065 52.6754 28.6331 52.3954 28.1531C52.1287 27.6598 51.7687 27.2865 51.3154 27.0331C50.8754 26.7798 50.3954 26.6531 49.8754 26.6531C49.3687 26.6531 48.8887 26.7865 48.4354 27.0531C47.9954 27.3065 47.6354 27.6798 47.3554 28.1731C47.0887 28.6665 46.9554 29.2465 46.9554 29.9131C46.9554 30.5798 47.0887 31.1598 47.3554 31.6531C47.6354 32.1465 47.9954 32.5265 48.4354 32.7931C48.8887 33.0465 49.3687 33.1731 49.8754 33.1731C50.3954 33.1731 50.8754 33.0398 51.3154 32.7731C51.7687 32.5065 52.1287 32.1265 52.3954 31.6331C52.6754 31.1398 52.8154 30.5531 52.8154 29.8731ZM60.5101 25.9731C60.8701 25.4665 61.3634 25.0465 61.9901 24.7131C62.6301 24.3665 63.3567 24.1931 64.1701 24.1931C65.1167 24.1931 65.9701 24.4265 66.7301 24.8931C67.5034 25.3598 68.1101 26.0265 68.5501 26.8931C69.0034 27.7465 69.2301 28.7398 69.2301 29.8731C69.2301 31.0065 69.0034 32.0131 68.5501 32.8931C68.1101 33.7598 67.5034 34.4331 66.7301 34.9131C65.9701 35.3931 65.1167 35.6331 64.1701 35.6331C63.3567 35.6331 62.6367 35.4665 62.0101 35.1331C61.3967 34.7998 60.8967 34.3798 60.5101 33.8731V40.7331H57.7101V24.3731H60.5101V25.9731ZM66.3701 29.8731C66.3701 29.2065 66.2301 28.6331 65.9501 28.1531C65.6834 27.6598 65.3234 27.2865 64.8701 27.0331C64.4301 26.7798 63.9501 26.6531 63.4301 26.6531C62.9234 26.6531 62.4434 26.7865 61.9901 27.0531C61.5501 27.3065 61.1901 27.6798 60.9101 28.1731C60.6434 28.6665 60.5101 29.2465 60.5101 29.9131C60.5101 30.5798 60.6434 31.1598 60.9101 31.6531C61.1901 32.1465 61.5501 32.5265 61.9901 32.7931C62.4434 33.0465 62.9234 33.1731 63.4301 33.1731C63.9501 33.1731 64.4301 33.0398 64.8701 32.7731C65.3234 32.5065 65.6834 32.1265 65.9501 31.6331C66.2301 31.1398 66.3701 30.5531 66.3701 29.8731ZM74.0648 20.6531V35.4531H71.2648V20.6531H74.0648ZM78.2512 23.0531C77.7578 23.0531 77.3445 22.8998 77.0112 22.5931C76.6912 22.2731 76.5312 21.8798 76.5312 21.4131C76.5312 20.9465 76.6912 20.5598 77.0112 20.2531C77.3445 19.9331 77.7578 19.7731 78.2512 19.7731C78.7445 19.7731 79.1512 19.9331 79.4712 20.2531C79.8045 20.5598 79.9712 20.9465 79.9712 21.4131C79.9712 21.8798 79.8045 22.2731 79.4712 22.5931C79.1512 22.8998 78.7445 23.0531 78.2512 23.0531ZM79.6312 24.3731V35.4531H76.8312V24.3731H79.6312ZM92.6976 29.6731C92.6976 30.0731 92.6709 30.4331 92.6176 30.7531H84.5176C84.5842 31.5531 84.8642 32.1798 85.3576 32.6331C85.8509 33.0865 86.4576 33.3131 87.1776 33.3131C88.2176 33.3131 88.9576 32.8665 89.3976 31.9731H92.4176C92.0976 33.0398 91.4842 33.9198 90.5776 34.6131C89.6709 35.2931 88.5576 35.6331 87.2376 35.6331C86.1709 35.6331 85.2109 35.3998 84.3576 34.9331C83.5176 34.4531 82.8576 33.7798 82.3776 32.9131C81.9109 32.0465 81.6776 31.0465 81.6776 29.9131C81.6776 28.7665 81.9109 27.7598 82.3776 26.8931C82.8442 26.0265 83.4976 25.3598 84.3376 24.8931C85.1776 24.4265 86.1442 24.1931 87.2376 24.1931C88.2909 24.1931 89.2309 24.4198 90.0576 24.8731C90.8976 25.3265 91.5442 25.9731 91.9976 26.8131C92.4642 27.6398 92.6976 28.5931 92.6976 29.6731ZM89.7976 28.8731C89.7842 28.1531 89.5242 27.5798 89.0176 27.1531C88.5109 26.7131 87.8909 26.4931 87.1576 26.4931C86.4642 26.4931 85.8776 26.7065 85.3976 27.1331C84.9309 27.5465 84.6442 28.1265 84.5376 28.8731H89.7976ZM97.5413 26.0931C97.9013 25.5065 98.368 25.0465 98.9413 24.7131C99.528 24.3798 100.195 24.2131 100.941 24.2131V27.1531H100.201C99.3213 27.1531 98.6547 27.3598 98.2013 27.7731C97.7613 28.1865 97.5413 28.9065 97.5413 29.9331V35.4531H94.7413V24.3731H97.5413V26.0931Z" fill="white"/>
</svg>
