<svg width="31" height="30" viewBox="0 0 31 30" fill="none" xmlns="http://www.w3.org/2000/svg">
<g clip-path="url(#clip0_12362_7079)">
<path d="M25.0949 24.5983V16.2002L15.4971 9.00195L5.89939 16.2002V24.5982H3.5V26.9977H27.4943V24.5982H25.0949V24.5983ZM14.2974 22.1988H11.898V19.7994H14.2974V22.1988ZM14.2974 17.4H11.898V15.0005H14.2974V17.4ZM19.0963 22.1988H16.6968V19.7994H19.0963V22.1988ZM19.0963 17.4H16.6968V15.0005H19.0963V17.4Z" fill="white"/>
<path d="M27.015 11.6399L16.2176 3.24191C15.9776 3.12196 15.7377 3.00195 15.4977 3.00195C15.2578 3.00195 15.0179 3.12191 14.7779 3.24191L8.29944 8.28072V5.4014C8.29944 4.68157 7.81958 4.20171 7.09975 4.20171C6.37992 4.20171 5.90005 4.68157 5.90005 5.4014V10.0803L3.98047 11.6399C3.5006 11.9998 3.38059 12.8396 3.74051 13.3195C4.10042 13.9194 4.9402 13.9194 5.42013 13.5595L15.4977 5.76132L25.5753 13.5595C26.0552 13.9194 26.895 13.9194 27.255 13.3195C27.6149 12.8397 27.6149 11.9999 27.015 11.6399Z" fill="white"/>
</g>
<defs>
<clipPath id="clip0_12362_7079">
<rect width="24" height="24" fill="white" transform="translate(3.5 3)"/>
</clipPath>
</defs>
</svg>
