<svg width="31" height="30" viewBox="0 0 31 30" fill="none" xmlns="http://www.w3.org/2000/svg">
<path d="M23.6256 23.125C24.3006 23.125 24.8756 23.7 24.8756 24.375C24.8756 25.05 24.3006 25.625 23.6256 25.625H8.62564C7.95064 25.625 7.37564 25.05 7.37564 24.375C7.37564 23.7 7.95064 23.125 8.62564 23.125H23.6256ZM23.6256 21.25H8.62564C6.91314 21.25 5.50064 22.6625 5.50064 24.375C5.50064 26.0875 6.91314 27.5 8.62564 27.5H23.6256C24.4544 27.5 25.2493 27.1708 25.8354 26.5847C26.4214 25.9987 26.7506 25.2038 26.7506 24.375C26.7506 23.5462 26.4214 22.7513 25.8354 22.1653C25.2493 21.5792 24.4544 21.25 23.6256 21.25ZM26.7506 13.75H23.0006V8.75H16.7506L13.0006 13.75V20H28.0006L26.7506 13.75ZM14.9256 13.75L17.3756 10.625H20.5006V13.75H14.9256ZM12.7006 4.2625L6.45064 2.5L3.00064 14.7875C2.57564 16.3875 3.51314 18.05 5.12564 18.5L6.57564 18.9L10.6881 15.3625L5.83814 14.0125L8.18814 5.575L11.6756 6.55C12.3756 6.9125 13.8881 7.925 14.8381 9.2125L16.1256 7.5H16.6756C15.1006 5.5125 12.8131 4.325 12.7006 4.2625Z" fill="white"/>
</svg>
