<svg width="25" height="24" viewBox="0 0 25 24" fill="none" xmlns="http://www.w3.org/2000/svg">
<path d="M13.1795 0C13.2015 1.58461 13.2015 3.16923 13.2015 4.76753C13.6674 4.76753 14.1239 4.76753 14.5992 4.76753C14.5992 3.20561 14.5992 1.63972 14.5992 0.073295C16.2011 0.126008 18.675 1.87527 18.5952 4.76647C19.0516 4.76647 19.5084 4.76647 19.9817 4.76647C19.9817 5.24104 19.9817 5.69767 19.9817 6.17094C15.0019 6.17094 10.0094 6.17094 5.00781 6.17094C5.00781 5.7124 5.00781 5.25598 5.00781 4.78088C5.47352 4.78088 5.93028 4.78088 6.40181 4.78088C6.35281 3.39034 6.86153 2.22627 7.82845 1.28673C8.69214 0.447488 9.66643 0.104556 10.3851 0.0553011C10.3851 1.62318 10.3851 3.19006 10.3851 4.76905C10.858 4.76905 11.3145 4.76905 11.7953 4.76905C11.7953 3.19357 11.7953 1.61875 11.7953 0.0219683C12.2494 1.39698e-09 12.7035 0 13.1795 0Z" fill="white"/>
<path d="M1.97711 23.9996C1.95514 23.1724 1.93685 22.3447 1.95985 21.5182C1.98745 20.5264 2.27807 19.607 2.77347 18.7437C3.09686 18.1802 3.48798 17.6777 3.96091 17.2386C4.74465 16.5108 5.65257 16.004 6.69529 15.7511C6.97857 15.6824 7.26644 15.6326 7.58014 15.5684C7.58014 18.4032 7.58014 21.1794 7.58014 23.9776C5.71978 23.9996 3.85943 23.9996 1.97711 23.9996Z" fill="white"/>
<path d="M17.4458 23.9999C17.4238 21.2083 17.4238 18.4167 17.4238 15.61C17.9453 15.598 18.4121 15.7586 18.8737 15.916C19.4531 16.1136 19.9888 16.4064 20.4821 16.7706C21.0611 17.1981 21.5567 17.7082 21.9634 18.3028C22.3526 18.8717 22.6592 19.4848 22.8265 20.152C22.9386 20.5989 23.0202 21.0624 23.0394 21.5216C23.0732 22.3318 23.0488 23.1444 23.0488 23.9779C21.1885 23.9999 19.3281 23.9999 17.4458 23.9999Z" fill="white"/>
<path d="M9.01025 23.9943C8.98828 22.5984 8.98828 21.2024 8.98828 19.791C11.3293 19.791 13.6639 19.791 16.0195 19.791C16.0195 21.178 16.0195 22.5642 16.0195 23.9724C15.5654 23.9943 15.1113 23.9943 14.6353 23.9724C14.6133 23.0336 14.6133 22.1168 14.6133 21.1982C14.1332 21.1982 13.6721 21.1982 13.207 21.1982C13.207 22.1412 13.207 23.0678 13.207 23.9943C12.7529 23.9943 12.2988 23.9943 11.8228 23.9724C11.8008 23.0336 11.8008 22.1168 11.8008 21.1982C11.3206 21.1982 10.8596 21.1982 10.3945 21.1982C10.3945 22.1412 10.3945 23.0678 10.3945 23.9943C9.94043 23.9943 9.48632 23.9943 9.01025 23.9943Z" fill="white"/>
<path d="M8.00278 7.5957C11.54 7.5957 15.0537 7.5957 18.5838 7.5957C18.7321 9.63813 18.0567 11.3779 16.5126 12.673C14.4266 14.4227 12.0678 14.6838 9.63253 13.4526C7.52209 12.3857 6.21555 10.1225 6.42169 7.5957C6.93916 7.5957 7.45925 7.5957 8.00278 7.5957Z" fill="white"/>
<path d="M10.1038 18.3695C9.72208 18.3695 9.36379 18.3695 8.99219 18.3695C8.99219 17.4341 8.99219 16.5089 8.99219 15.5703C11.3206 15.5703 13.652 15.5703 15.9967 15.5703C15.9967 16.4925 15.9967 17.4177 15.9967 18.3695C14.0421 18.3695 12.0847 18.3695 10.1038 18.3695Z" fill="white"/>
</svg>
