<svg width="31" height="30" viewBox="0 0 31 30" fill="none" xmlns="http://www.w3.org/2000/svg">
<path d="M6.58008 11.3097C6.58008 10.5575 7.18903 9.98438 7.94127 9.98438H8.12038V12.6709H7.94127C7.18903 12.6709 6.58008 12.062 6.58008 11.3097Z" fill="white"/>
<path d="M11.0584 24.2777L12.2405 25.5314H4.75391C4.86137 22.2001 7.04644 19.2628 10.1987 18.1523C10.2345 18.3673 10.3778 18.8688 10.5211 19.1195C10.8435 19.7285 11.4882 20.1941 11.8464 20.3016L10.9867 23.9553C10.9151 24.0628 10.9509 24.1703 11.0584 24.2777Z" fill="white"/>
<path d="M14.1396 24.0632L12.8142 25.1378L11.668 23.9199L12.4918 20.4811C12.7068 20.4811 12.8501 20.5528 13.4232 20.4453L14.1396 24.0632Z" fill="white"/>
<path d="M14.9633 16.6484C14.9275 16.8634 15.429 19.6932 13.029 19.8007C10.4141 19.8007 10.9514 16.8992 10.9156 16.6484C11.6678 16.935 13.9604 17.0425 14.9633 16.6484Z" fill="white"/>
<path d="M14.82 15.9312C14.1394 16.2536 12.2767 16.1819 11.8827 16.1461C9.94834 15.8595 8.83789 14.3551 8.83789 12.7431V8.73117C9.16028 8.91028 8.83789 9.05356 15.8588 8.9461C16.2886 8.9461 16.7185 8.80282 17.0409 8.58789V12.7789C17.0051 14.2476 16.0737 15.4655 14.82 15.9312Z" fill="white"/>
<path d="M9.01695 7.9792C8.22889 7.04785 8.90949 6.11651 9.73337 6.11651C11.4528 6.11651 14.4259 5.93741 15.3931 4.82696C15.5005 4.7195 15.5722 4.61203 15.608 4.46875C16.3602 5.11353 17.6498 6.40308 17.1125 7.47771C16.8975 7.94338 16.3961 8.19412 15.8946 8.19412C9.41098 8.1583 9.37516 8.44487 9.01695 7.9792Z" fill="white"/>
<path d="M17.8998 12.6709H17.7207V9.98438H17.8998C18.652 9.98438 19.261 10.5933 19.261 11.3097C19.2252 12.062 18.652 12.6709 17.8998 12.6709Z" fill="white"/>
<path d="M14.7472 24.4926C14.8547 24.421 14.8905 24.2777 14.8905 24.1344L14.1383 20.23C14.9263 19.8359 15.5353 19.0479 15.6427 18.1523C16.7532 18.5464 17.792 19.1911 18.6517 20.0509C18.8308 20.23 19.0099 20.4091 19.1532 20.5882L19.2606 20.7673V21.5195L19.0457 21.3046L19.2965 23.3464C19.4039 24.2419 19.9412 24.9941 20.6935 25.4956H13.5293L14.7472 24.4926Z" fill="white"/>
<path d="M23.093 24.4217C24.3825 24.4217 25.5288 23.956 26.2094 23.2754C26.0661 24.5291 24.7049 25.5321 23.093 25.5321C21.4452 25.5321 20.1198 24.5291 19.9766 23.2754C20.6572 23.956 21.8034 24.4217 23.093 24.4217Z" fill="white"/>
<path d="M22.4838 13.6407C22.5913 13.569 22.7704 13.5332 22.9495 13.5332V14.3213C22.6987 14.2496 22.5196 14.2138 22.448 14.1422C22.3405 14.0705 22.3047 13.9989 22.3047 13.8914C22.3047 13.7839 22.3763 13.6765 22.4838 13.6407Z" fill="white"/>
<path d="M23.9182 15.1088C24.0256 15.1804 24.0615 15.2521 24.0615 15.3595C24.0615 15.467 23.9898 15.5386 23.8824 15.6103C23.7749 15.6819 23.5958 15.7177 23.3809 15.7536V14.9297C23.6316 15.0013 23.8107 15.0372 23.9182 15.1088Z" fill="white"/>
<path d="M23.0936 12.207C21.3742 12.207 19.9414 13.3175 19.9414 14.6787C19.9414 16.0399 21.3384 17.1503 23.0936 17.1503C24.813 17.1503 26.2459 16.0399 26.2459 14.6787C26.2459 13.3175 24.8489 12.207 23.0936 12.207ZM24.4548 15.9682C24.1683 16.1473 23.8101 16.219 23.3802 16.2548V16.5772H22.9504V16.2548C22.3414 16.219 21.8041 16.0399 21.3384 15.7533L21.8399 15.3593C22.1981 15.5742 22.5922 15.7175 22.9862 15.7533V14.8578C22.4847 14.7861 22.1265 14.6787 21.8757 14.5354C21.6608 14.3921 21.5175 14.213 21.5175 13.9264C21.5175 13.6757 21.6608 13.4608 21.9116 13.2817C22.1981 13.1026 22.5205 13.0309 22.9504 12.9951V12.7802H23.3802V13.0309C23.8817 13.0667 24.3116 13.1742 24.7772 13.3533L24.3474 13.7832C24.0608 13.6399 23.7384 13.5682 23.416 13.5324V14.3921H23.4519C23.9533 14.4637 24.3474 14.5712 24.5623 14.7145C24.813 14.8578 24.9205 15.0727 24.9205 15.3234C24.9205 15.5742 24.7414 15.7891 24.4548 15.9682Z" fill="white"/>
<path d="M26.2459 16.5059V17.2581C26.2459 18.3685 24.8489 19.2999 23.0936 19.2999C21.3742 19.2999 19.9414 18.3685 19.9414 17.2581V16.5059C20.6578 17.3297 21.8041 17.8671 23.0936 17.8671C24.3832 17.8671 25.5295 17.3297 26.2459 16.5059Z" fill="white"/>
<path d="M23.0936 20.0154C24.3832 20.0154 25.5295 19.5497 26.2459 18.8691V19.5139C26.2459 20.6244 24.8489 21.5557 23.0936 21.5557C21.3742 21.5557 19.9414 20.6244 19.9414 19.5139V18.8691C20.6578 19.5497 21.8041 20.0154 23.0936 20.0154Z" fill="white"/>
<path d="M23.0936 22.2732C24.3832 22.2732 25.5295 21.8076 26.2459 21.127V21.7001C26.2459 22.8105 24.8489 23.7419 23.0936 23.7419C21.3742 23.7419 19.9414 22.8105 19.9414 21.7001V21.127C20.6578 21.8076 21.8041 22.2732 23.0936 22.2732Z" fill="white"/>
</svg>
