<svg width="30" height="30" viewBox="0 0 30 30" fill="none" xmlns="http://www.w3.org/2000/svg">
<path d="M15.7575 4.67646C15.5275 4.54173 15.2658 4.4707 14.9992 4.4707C14.7327 4.4707 14.471 4.54173 14.241 4.67646L5.22597 9.95646C5.00029 10.0891 4.81325 10.2785 4.68344 10.5058C4.55363 10.7331 4.48557 10.9905 4.48603 11.2523C4.48648 11.514 4.55544 11.7711 4.68604 11.998C4.81663 12.2249 5.00433 12.4136 5.23047 12.5455L14.244 17.7985C14.4732 17.9321 14.7339 18.0025 14.9992 18.0025C15.2646 18.0025 15.5252 17.9321 15.7545 17.7985L24.768 12.5455C24.9943 12.4134 25.1821 12.2244 25.3127 11.9973C25.4433 11.7701 25.5121 11.5127 25.5122 11.2506C25.5124 10.9886 25.4439 10.7311 25.3136 10.5038C25.1832 10.2765 24.9957 10.0872 24.7695 9.95496L15.7575 4.67646ZM4.60497 14.476L14.262 19.909C14.4864 20.0351 14.7395 20.1014 14.997 20.1014C15.2544 20.1014 15.5075 20.0351 15.732 19.909L25.389 14.476C25.5341 14.8126 25.5509 15.1908 25.4362 15.539C25.3215 15.8873 25.0833 16.1814 24.7665 16.366L15.7515 21.619C15.5224 21.7523 15.262 21.8225 14.997 21.8225C14.7319 21.8225 14.4716 21.7523 14.2425 21.619L5.22747 16.366C4.91066 16.1814 4.6724 15.8873 4.55771 15.539C4.44302 15.1908 4.45983 14.8126 4.60497 14.476ZM4.60497 18.1555L14.262 23.5885C14.4864 23.7146 14.7395 23.7809 14.997 23.7809C15.2544 23.7809 15.5075 23.7146 15.732 23.5885L25.389 18.1555C25.5341 18.4921 25.5509 18.8703 25.4362 19.2185C25.3215 19.5668 25.0833 19.8609 24.7665 20.0455L15.7515 25.2985C15.5224 25.4318 15.262 25.502 14.997 25.502C14.7319 25.502 14.4716 25.4318 14.2425 25.2985L5.22747 20.0455C4.91066 19.8609 4.6724 19.5668 4.55771 19.2185C4.44302 18.8703 4.45983 18.4921 4.60497 18.1555Z" fill="white"/>
</svg>
