<svg width="31" height="30" viewBox="0 0 31 30" fill="none" xmlns="http://www.w3.org/2000/svg">
<path d="M25.3652 14.385L16.1078 5.12761C15.7199 4.7397 15.1852 4.51953 14.6295 4.51953H7.11244C5.95919 4.51953 5.01562 5.4631 5.01562 6.61634V14.1334C5.01562 14.6891 5.23579 15.2238 5.63418 15.6117L14.8916 24.8691C15.7094 25.6869 17.0408 25.6869 17.8586 24.8691L25.3757 17.352C26.1934 16.5343 26.1934 15.2133 25.3652 14.385ZM9.73346 10.81C8.86328 10.81 8.16085 10.1075 8.16085 9.23736C8.16085 8.36718 8.86328 7.66475 9.73346 7.66475C10.6036 7.66475 11.3061 8.36718 11.3061 9.23736C11.3061 10.1075 10.6036 10.81 9.73346 10.81Z" fill="white"/>
</svg>
