<svg width="30" height="30" viewBox="0 0 30 30" fill="none" xmlns="http://www.w3.org/2000/svg">
<path d="M4.72155 4.56875C4.4953 5.01875 4.38405 5.57625 4.16155 6.68875L3.41405 10.4262C3.30811 10.9358 3.30729 11.4617 3.41164 11.9716C3.51599 12.4815 3.72331 12.9648 4.02091 13.3918C4.31851 13.8188 4.70014 14.1806 5.14241 14.455C5.58469 14.7294 6.07832 14.9107 6.59308 14.9877C7.10784 15.0647 7.6329 15.0358 8.13612 14.9029C8.63934 14.7699 9.11013 14.5356 9.51966 14.2144C9.9292 13.8932 10.2689 13.4917 10.5179 13.0347C10.7669 12.5776 10.92 12.0745 10.9678 11.5562L11.0553 10.6938C11.0079 11.2423 11.0755 11.7947 11.2537 12.3156C11.4319 12.8366 11.7168 13.3147 12.0903 13.7193C12.4637 14.1239 12.9174 14.4461 13.4224 14.6655C13.9274 14.8848 14.4726 14.9963 15.0232 14.993C15.5738 14.9897 16.1176 14.8716 16.62 14.6462C17.1223 14.4208 17.5721 14.0931 17.9406 13.684C18.3092 13.2749 18.5883 12.7935 18.7602 12.2704C18.9321 11.7474 18.993 11.1942 18.9391 10.6462L19.0303 11.5562C19.0781 12.0745 19.2312 12.5776 19.4802 13.0347C19.7292 13.4917 20.0689 13.8932 20.4784 14.2144C20.888 14.5356 21.3588 14.7699 21.862 14.9029C22.3652 15.0358 22.8903 15.0647 23.405 14.9877C23.9198 14.9107 24.4134 14.7294 24.8557 14.455C25.298 14.1806 25.6796 13.8188 25.9772 13.3918C26.2748 12.9648 26.4821 12.4815 26.5865 11.9716C26.6908 11.4617 26.69 10.9358 26.5841 10.4262L25.8366 6.68875C25.6141 5.57625 25.5028 5.02 25.2766 4.56875C25.0408 4.0988 24.7089 3.68367 24.3023 3.35031C23.8957 3.01696 23.4236 2.77282 22.9166 2.63375C22.4291 2.5 21.8616 2.5 20.7266 2.5H9.27155C8.13655 2.5 7.56905 2.5 7.08155 2.63375C6.57451 2.77282 6.10238 3.01696 5.69581 3.35031C5.28923 3.68367 4.9573 4.0988 4.72155 4.56875ZM22.8353 16.875C23.812 16.8775 24.7727 16.6273 25.6241 16.1487V17.5C25.6241 22.2137 25.6241 24.5712 24.159 26.035C22.9803 27.215 21.2241 27.4437 18.1241 27.4887V23.125C18.1241 21.9562 18.1241 21.3725 17.8728 20.9375C17.7082 20.6525 17.4716 20.4158 17.1866 20.2513C16.7516 20 16.1678 20 14.9991 20C13.8303 20 13.2466 20 12.8116 20.2513C12.5265 20.4158 12.2899 20.6525 12.1253 20.9375C11.8741 21.3725 11.8741 21.9562 11.8741 23.125V27.4887C8.77405 27.4437 7.0178 27.2137 5.83905 26.035C4.37405 24.5712 4.37405 22.2137 4.37405 17.5V16.1487C5.22582 16.6275 6.18697 16.8777 7.16405 16.875C8.6086 16.8759 9.99937 16.3271 11.0541 15.34C12.1287 16.3304 13.5376 16.8786 14.9991 16.875C16.4605 16.8786 17.8694 16.3304 18.9441 15.34C19.9987 16.3271 21.3908 16.8759 22.8353 16.875Z" fill="white"/>
</svg>
